<?xml version="1.0" standalone="no"?>
<!DOCTYPE svg PUBLIC "-//W3C//DTD SVG 20010904//EN"
 "http://www.w3.org/TR/2001/REC-SVG-20010904/DTD/svg10.dtd">
<svg version="1.0" xmlns="http://www.w3.org/2000/svg"
 width="1000.000000pt" height="1000.000000pt" viewBox="0 0 1000.000000 1000.000000"
 preserveAspectRatio="xMidYMid meet">
<metadata>
Created by potrace 1.14, written by Peter Selinger 2001-2017
</metadata>
<g transform="translate(0.000000,1000.000000) scale(0.100000,-0.100000)"
fill="#000000" stroke="none">
<path d="M6834 9835 c7 -78 3 -93 -15 -48 -7 20 -13 23 -21 15 -9 -9 -4 -36
17 -111 17 -62 25 -106 20 -118 -6 -13 -11 -1 -20 44 -13 71 -22 86 -36 60 -7
-12 -17 -16 -30 -12 -23 8 -26 -20 -4 -49 20 -27 19 -43 -5 -51 -28 -9 -25
-26 10 -60 34 -33 39 -51 10 -35 -11 6 -21 7 -21 3 -3 -17 3 -49 11 -58 5 -6
3 -20 -4 -33 l-12 -22 -41 35 c-23 19 -44 35 -47 35 -11 0 -6 -56 6 -68 9 -9
9 -15 0 -24 -17 -17 -15 -31 13 -72 14 -20 25 -39 25 -42 0 -3 -14 -11 -32
-18 l-31 -14 44 -7 c76 -11 80 -14 73 -42 -6 -22 -4 -24 15 -18 15 5 21 2 21
-9 0 -20 9 -20 32 1 17 15 18 15 18 -10 0 -25 -3 -27 -39 -27 -21 0 -58 7 -81
15 -54 19 -53 19 -47 -5 5 -18 3 -18 -27 4 -42 33 -69 36 -74 11 -6 -30 -22
-45 -48 -45 -13 0 -24 -4 -24 -9 0 -14 42 -41 63 -41 15 0 18 -5 13 -25 -8
-32 -1 -31 43 2 20 14 30 20 24 13 -13 -14 -19 -80 -8 -80 3 0 17 8 32 17 26
17 26 17 14 -4 -15 -29 -14 -33 9 -33 11 0 20 -5 20 -12 0 -6 10 -3 23 8 12
11 37 29 54 42 l33 22 -11 -27 c-25 -67 -74 -89 -132 -58 -24 12 -29 12 -33 0
-3 -8 -3 -19 1 -25 4 -6 -10 -3 -32 6 -55 25 -113 30 -113 11 0 -9 5 -19 10
-22 15 -10 12 -42 -5 -49 -23 -9 -2 -43 38 -62 18 -9 43 -33 55 -55 l23 -40
-34 6 c-34 7 -58 -7 -37 -20 5 -3 10 -20 10 -37 l0 -32 -30 29 -30 29 0 -27
c0 -23 -5 -26 -37 -29 l-38 -3 62 -62 61 -62 -29 -6 c-39 -9 -26 -26 42 -56
27 -13 49 -27 49 -32 0 -6 -30 -7 -75 -2 -64 6 -75 4 -75 -9 0 -11 -8 -13 -35
-9 -43 7 -47 -12 -10 -47 30 -28 32 -40 5 -40 -26 0 -25 -20 1 -54 24 -30 88
-65 107 -59 6 3 12 -2 12 -10 0 -9 8 -17 18 -20 26 -6 -23 -24 -91 -32 l-57
-7 18 -30 c20 -36 82 -78 114 -78 21 0 21 -2 -10 -32 -28 -28 -39 -33 -80 -32
-47 0 -48 0 -30 -18 36 -36 20 -53 -49 -53 l-62 0 35 -28 c37 -31 44 -66 19
-87 -21 -18 -19 -33 10 -60 23 -21 29 -23 46 -11 12 7 18 8 14 2 -11 -19 24
-24 50 -7 30 20 35 20 35 0 0 -12 5 -11 20 7 18 23 19 23 20 4 1 -19 2 -19 12
3 11 21 48 32 48 13 0 -14 -60 -58 -103 -76 -39 -16 -44 -24 -26 -42 29 -29
-105 -44 -177 -19 -26 9 -49 16 -51 16 -9 0 -1 -26 14 -42 15 -17 15 -18 -10
-18 -18 0 -25 4 -21 14 4 11 -3 12 -41 5 -42 -8 -118 0 -131 14 -3 3 17 13 45
22 28 9 60 28 72 43 19 25 19 27 3 39 -10 7 -29 13 -43 13 l-25 0 29 30 c16
16 48 37 72 46 24 9 43 20 43 24 0 17 -39 40 -69 40 -29 0 -31 2 -20 22 10 18
9 20 -5 15 -10 -4 -16 -1 -16 7 0 10 -13 7 -47 -10 -25 -13 -54 -24 -62 -24
-24 0 -58 26 -64 49 -4 17 -1 19 28 14 19 -3 35 0 39 6 5 8 13 8 27 1 15 -8
19 -7 19 4 0 9 22 25 50 37 28 12 50 23 50 26 0 2 -14 16 -31 30 -35 30 -28
46 30 60 47 12 48 26 6 46 -42 20 -76 22 -93 5 -10 -10 -11 -5 -6 21 l7 33
-34 -8 c-19 -5 -54 -9 -79 -9 -39 0 -45 3 -48 23 -2 15 2 22 12 22 9 0 16 5
16 11 0 8 4 8 15 -1 8 -6 20 -8 26 -4 7 4 29 8 48 8 29 1 35 5 33 19 -2 9 2
17 8 17 5 0 10 16 10 35 0 34 12 46 25 25 9 -15 25 -2 19 15 -3 8 6 26 20 40
33 33 33 49 1 43 -14 -3 -25 -1 -25 5 0 6 -8 3 -18 -6 -27 -24 -32 -21 -25 14
l6 30 -49 -30 c-55 -35 -103 -40 -127 -13 -19 20 -23 52 -7 52 6 0 10 -5 10
-11 0 -6 7 -8 16 -5 10 4 25 -1 34 -9 17 -15 19 -14 25 15 7 30 8 31 31 16 30
-21 34 -20 34 4 0 13 5 18 15 14 10 -4 15 0 15 13 0 11 16 36 36 56 20 19 33
40 30 46 -11 17 -72 24 -96 11 -20 -10 -21 -10 -16 8 6 17 1 20 -31 24 -21 3
-46 1 -55 -3 -9 -5 -33 -9 -53 -9 -42 0 -85 37 -84 72 l0 23 11 -22 c13 -27
28 -30 28 -6 0 14 3 13 16 -5 20 -29 32 -28 40 4 l7 26 21 -33 21 -33 9 27 c7
18 17 27 32 27 12 0 32 9 45 20 l24 19 -49 47 c-39 38 -53 45 -77 42 -37 -6
-37 1 6 42 37 36 37 50 -1 50 -32 0 -30 10 11 50 39 38 43 54 18 68 -15 9 -15
13 4 45 20 34 21 35 3 40 -16 4 -18 12 -14 43 l5 39 -24 -29 c-16 -18 -27 -24
-31 -17 -12 18 -23 12 -31 -16 -9 -36 -43 -83 -61 -83 -10 0 -14 12 -14 40 0
36 3 40 43 58 23 10 48 26 55 34 11 14 9 17 -17 23 -39 8 -50 25 -18 25 37 0
51 23 25 39 -19 12 -20 14 -5 23 9 5 17 20 17 34 l0 25 -30 -21 c-22 -16 -28
-17 -24 -6 3 9 2 16 -3 16 -5 0 -19 -21 -30 -47 -19 -43 -21 -45 -22 -20 -1
15 6 42 15 59 9 16 22 48 29 69 12 34 12 39 0 39 -8 0 -21 -12 -29 -27 l-15
-28 -1 31 c0 38 -19 94 -31 94 -11 0 -12 -6 -11 -85 0 -33 -2 -50 -5 -37 -5
24 -33 31 -33 8 0 -7 9 -42 20 -76 11 -34 19 -77 19 -94 -1 -23 -5 -14 -16 33
-15 62 -16 64 -32 45 -9 -11 -24 -18 -33 -16 -22 4 -22 -2 -1 -40 18 -29 18
-29 -6 -47 l-24 -18 32 -28 c35 -32 40 -49 11 -40 -15 5 -20 2 -20 -12 0 -11
5 -24 10 -29 12 -12 3 -44 -12 -44 -5 0 -25 12 -44 26 -41 32 -53 25 -36 -18
8 -21 8 -36 2 -42 -15 -15 -13 -21 14 -53 27 -32 24 -43 -14 -59 -23 -10 -20
-12 33 -18 57 -7 59 -9 52 -33 -5 -22 -3 -25 14 -20 11 3 22 0 24 -7 3 -8 10
-8 26 2 19 11 21 10 21 -8 0 -30 -25 -35 -91 -16 -74 20 -72 20 -66 -5 l6 -21
-22 20 c-12 11 -34 25 -49 31 -24 9 -28 8 -28 -7 0 -25 -20 -42 -47 -42 -42 0
-22 -32 29 -44 20 -4 25 -11 21 -26 -5 -20 11 -28 22 -10 3 5 16 15 28 21 18
9 20 9 10 -2 -13 -13 -18 -69 -8 -69 3 0 18 8 33 17 17 10 22 11 15 3 -20 -22
-16 -43 7 -37 11 3 20 0 20 -5 0 -6 8 -5 18 4 9 8 29 22 45 31 24 16 27 16 27
2 0 -9 -12 -27 -26 -42 -26 -26 -44 -27 -111 -7 -18 5 -23 2 -23 -11 0 -12 -5
-15 -17 -10 -81 35 -136 27 -100 -13 15 -17 15 -19 0 -35 -14 -13 -14 -19 -3
-32 8 -9 25 -22 39 -30 14 -7 34 -27 44 -44 l18 -31 -36 0 c-32 0 -35 -2 -25
-19 5 -11 10 -27 10 -36 0 -14 -4 -13 -27 5 l-28 22 -3 -26 c-3 -22 -7 -25
-33 -19 -43 8 -36 -8 27 -66 51 -46 53 -51 30 -51 -44 0 -37 -17 22 -49 l57
-32 -64 5 c-56 4 -64 2 -68 -14 -4 -16 -9 -17 -31 -9 -39 15 -47 -4 -17 -40
26 -31 27 -31 5 -31 -22 0 -23 -5 -9 -46 2 -6 -27 -34 -65 -63 l-68 -53 7 33
c7 36 12 45 58 102 15 19 31 52 34 72 6 36 5 37 -17 25 -20 -11 -25 -10 -41
11 -15 20 -16 25 -3 32 14 8 19 48 7 61 -4 3 -22 -8 -40 -26 -28 -27 -35 -30
-44 -18 -32 51 -17 102 47 159 49 43 53 51 24 51 -28 0 -77 -26 -89 -47 -9
-16 -10 -14 -11 9 0 15 5 50 11 78 6 28 8 54 5 57 -3 4 -17 -4 -31 -17 l-25
-23 0 35 c0 19 9 61 20 93 20 57 27 145 13 145 -5 0 -23 -24 -41 -53 -26 -42
-31 -46 -25 -22 3 16 6 36 6 45 0 8 3 20 8 25 6 8 13 97 10 130 -1 6 -11 -6
-24 -25 l-22 -35 -7 89 c-6 87 -22 146 -39 146 -5 0 -9 -20 -9 -45 0 -32 -6
-51 -21 -66 -20 -20 -20 -23 -6 -80 l15 -60 -26 17 c-24 16 -25 16 -18 -2 5
-11 10 -36 13 -56 6 -38 6 -38 -31 -38 -20 0 -36 -2 -36 -5 0 -3 11 -23 25
-46 14 -22 23 -44 20 -49 -10 -17 -38 -11 -63 13 l-24 22 7 -25 c6 -23 28 -62
79 -142 l19 -30 -51 26 c-28 14 -56 26 -62 26 -6 0 1 -22 15 -50 29 -58 30
-64 9 -56 -13 5 -15 0 -9 -35 6 -35 4 -43 -14 -55 -25 -18 -27 -37 -5 -54 8
-8 20 -23 26 -34 11 -20 10 -20 -9 -3 -26 23 -37 22 -30 -3 7 -26 1 -25 -67 5
-31 14 -59 25 -62 25 -8 0 7 -61 22 -93 8 -15 34 -39 57 -54 56 -36 87 -64 87
-79 0 -22 -59 -38 -101 -27 -22 6 -39 8 -39 5 0 -2 18 -45 41 -94 22 -50 38
-92 36 -95 -3 -2 -32 3 -65 11 -85 22 -89 22 -84 -14 2 -17 9 -29 16 -27 6 2
32 -14 58 -37 25 -23 61 -54 79 -69 27 -23 30 -30 18 -38 -21 -13 -67 -11
-123 6 -27 8 -51 13 -54 11 -9 -10 25 -62 55 -82 18 -12 29 -24 26 -28 -11
-11 -69 -6 -113 9 -23 8 -44 15 -46 15 -3 0 5 -19 17 -41 32 -64 62 -89 105
-89 37 0 124 -35 124 -49 0 -15 -37 -41 -66 -47 -18 -3 -45 1 -67 10 l-37 15
0 -26 c0 -21 -3 -24 -22 -19 -13 3 -43 6 -67 6 -41 0 -43 1 -37 25 6 24 5 25
-48 25 -30 0 -58 5 -61 10 -3 6 3 10 14 10 24 0 25 4 11 31 -9 15 -7 19 6 19
10 0 14 6 11 14 -3 7 0 19 6 26 9 9 2 10 -35 5 -49 -7 -108 1 -108 15 0 5 15
13 34 20 18 6 43 22 56 35 20 21 21 27 10 41 -8 9 -23 14 -36 11 -20 -3 -22
-1 -13 14 11 22 78 69 96 69 20 0 15 28 -6 40 -11 5 -29 10 -41 10 -17 0 -20
4 -15 21 5 14 3 19 -3 15 -6 -3 -12 -2 -14 4 -2 6 -19 2 -43 -10 -21 -11 -44
-20 -50 -20 -18 0 -43 24 -50 48 -6 22 -5 23 15 12 15 -8 25 -8 34 -1 8 6 21
9 30 5 10 -4 16 -1 16 8 0 8 18 23 40 33 22 10 40 20 40 23 0 3 -10 16 -21 28
-28 30 -19 50 25 58 20 4 36 10 36 15 0 16 -67 44 -93 39 -24 -5 -26 -3 -20
20 6 23 4 24 -23 17 -16 -5 -47 -9 -69 -9 -34 -1 -40 2 -43 22 -2 15 2 22 12
22 9 0 16 6 16 13 0 8 3 8 8 1 4 -6 26 -9 50 -6 33 3 42 8 42 23 0 10 5 19 10
19 6 0 10 13 10 30 0 22 4 28 15 24 9 -4 15 0 15 10 0 9 9 25 20 36 11 11 20
25 20 30 0 6 -9 10 -20 10 -11 0 -20 5 -20 12 0 6 -9 3 -21 -8 -20 -18 -20
-18 -14 9 9 33 3 34 -38 3 -49 -36 -75 -39 -103 -11 -25 25 -31 45 -15 45 6 0
13 -5 16 -10 4 -6 11 -8 16 -4 5 3 16 0 24 -6 11 -10 15 -7 21 15 5 19 10 23
17 16 16 -16 37 -13 37 4 0 9 6 12 16 8 13 -5 15 -2 10 14 -4 14 -1 23 9 27 8
3 15 12 15 20 0 7 7 16 15 20 8 3 15 12 15 20 0 21 -65 32 -87 15 -14 -12 -15
-11 -9 7 6 19 2 22 -26 27 -18 2 -41 1 -50 -4 -9 -5 -26 -9 -38 -9 -25 0 -70
42 -70 66 0 16 2 16 15 -2 10 -13 14 -15 15 -5 0 11 5 10 20 -4 19 -17 20 -17
29 6 l9 24 12 -27 c16 -34 27 -36 32 -5 2 12 9 21 17 19 8 -2 24 7 37 19 l23
22 -37 43 c-23 27 -46 43 -59 44 -30 0 -29 11 2 40 31 29 31 34 -1 46 l-25 9
30 35 c34 39 38 58 16 66 -13 5 -12 10 1 37 14 26 14 32 2 41 -10 8 -12 19 -7
39 9 33 -4 35 -25 5 -9 -12 -16 -17 -16 -10 0 25 -19 11 -30 -22 -6 -18 -22
-44 -36 -57 l-25 -24 3 44 c3 41 7 47 42 65 44 23 58 46 28 46 -11 0 -25 6
-31 14 -9 11 -6 14 14 14 35 0 41 8 21 31 -15 16 -15 19 -1 31 14 12 21 40 9
40 -3 0 -14 -5 -25 -10 -14 -8 -19 -7 -19 1 0 20 -14 1 -32 -44 -28 -69 -22
-7 7 69 29 78 29 74 12 74 -8 0 -19 -10 -25 -22 -10 -22 -11 -21 -11 9 -1 41
-18 86 -31 78 -5 -3 -7 -35 -5 -73 3 -37 1 -57 -3 -44 -4 13 -11 22 -17 21
-12 -2 -9 -25 11 -93 8 -27 13 -61 13 -75 -1 -18 -5 -11 -11 19 -17 76 -18 78
-33 57 -7 -10 -17 -17 -21 -16 -22 4 -24 -3 -7 -32 17 -29 17 -31 1 -43 -24
-18 -23 -28 7 -56 30 -28 33 -45 5 -30 -16 9 -20 8 -20 -5 0 -9 4 -24 9 -34 5
-9 6 -23 1 -30 -6 -11 -16 -8 -44 14 l-35 27 2 -66 c2 -46 8 -71 21 -85 17
-19 17 -20 -10 -34 l-27 -14 47 -7 c41 -6 47 -10 44 -29 -2 -12 2 -22 9 -22 6
0 15 -3 18 -7 4 -4 16 -3 27 3 17 9 19 8 16 -8 -4 -24 -46 -28 -94 -8 -24 10
-40 12 -44 5 -4 -6 -13 -5 -26 5 -28 21 -41 18 -48 -9 -4 -15 -17 -28 -33 -34
l-28 -9 32 -19 c19 -11 33 -27 33 -38 0 -18 1 -18 18 -3 26 24 29 21 24 -14
-4 -28 -2 -30 17 -24 16 5 20 3 15 -9 -10 -25 38 -24 74 2 36 27 44 14 16 -27
-17 -23 -52 -26 -96 -6 -13 5 -18 3 -18 -10 0 -12 -5 -15 -17 -10 -59 24 -75
27 -85 17 -6 -6 -5 -17 4 -32 10 -18 10 -24 1 -27 -22 -8 -14 -25 32 -70 25
-23 45 -47 45 -53 0 -5 -14 -10 -32 -10 -25 0 -29 -3 -20 -12 7 -7 12 -23 12
-37 l0 -24 -25 23 c-25 23 -25 23 -25 2 0 -15 -7 -21 -27 -24 l-28 -3 49 -52
c48 -53 49 -53 21 -53 -24 0 -26 -2 -14 -16 7 -8 30 -24 51 -35 21 -11 38 -22
38 -25 0 -3 -27 -3 -60 1 -41 5 -60 4 -60 -4 0 -6 -11 -11 -25 -11 -31 0 -32
-16 -3 -47 l21 -23 -21 0 c-25 0 -26 -3 -11 -33 14 -26 49 -56 66 -57 6 0 18
-6 25 -13 7 -8 20 -16 28 -19 17 -6 -52 -28 -87 -28 -26 0 -27 -6 -9 -38 16
-30 65 -62 83 -55 22 9 4 -24 -24 -42 -16 -11 -36 -15 -54 -11 l-29 6 17 -26
c14 -22 14 -27 2 -35 -8 -6 -31 -8 -53 -5 l-38 4 26 -27 c14 -15 26 -36 26
-48 0 -24 -30 -40 -41 -21 -6 9 -20 8 -62 -5 -58 -18 -114 -22 -135 -9 -9 6 3
19 40 45 137 96 173 128 175 158 1 17 7 37 15 46 15 20 21 21 -99 -31 -46 -19
-83 -33 -83 -30 0 2 11 26 24 52 30 60 66 166 66 193 0 21 -1 21 -32 -3 -53
-40 -118 -69 -146 -66 -21 2 -28 9 -30 30 -3 22 2 30 22 38 28 10 31 17 17 39
-6 9 -2 25 10 45 13 21 19 50 19 92 l0 61 41 16 c33 13 39 20 34 36 -3 10 -2
22 3 25 6 3 5 22 -1 45 -9 32 -8 44 6 64 11 17 13 28 6 32 -11 8 -19 2 -106
-73 -57 -49 -63 -52 -63 -30 1 30 31 92 70 144 19 24 34 58 37 83 l6 42 -28
-13 c-24 -11 -29 -10 -41 7 -18 24 -18 39 1 55 20 16 19 49 -1 57 -11 4 -27
-6 -48 -32 -28 -33 -33 -35 -45 -22 -21 26 -25 90 -8 124 9 17 39 51 68 77 40
36 47 47 35 52 -26 10 -66 -5 -97 -36 l-29 -28 0 32 c0 18 5 58 11 90 6 32 8
60 5 63 -2 3 -18 -10 -35 -29 l-30 -33 -1 47 c0 26 11 82 25 125 24 75 33 163
18 163 -5 0 -27 -31 -51 -68 -24 -37 -39 -56 -35 -42 4 14 8 42 8 63 0 21 5
37 12 37 7 0 13 27 15 80 2 44 0 80 -3 80 -3 0 -16 -19 -30 -42 l-24 -43 -7
112 c-7 108 -25 173 -48 173 -6 0 -10 -27 -10 -60 0 -52 -3 -62 -24 -75 l-24
-16 19 -72 c10 -40 19 -73 19 -75 0 -2 -14 6 -30 18 -17 12 -30 20 -30 18 0
-2 7 -21 15 -43 8 -22 14 -53 15 -69 0 -28 -1 -28 -40 -23 -47 6 -49 -2 -15
-58 31 -49 31 -62 3 -71 -17 -5 -28 0 -45 21 -13 15 -26 25 -29 23 -9 -9 20
-74 58 -130 60 -90 59 -94 -12 -58 -34 17 -64 30 -66 28 -2 -2 10 -32 26 -67
36 -75 36 -74 9 -66 -20 7 -21 5 -14 -43 6 -45 4 -51 -13 -56 -34 -11 -34 -35
-1 -77 33 -42 36 -64 4 -29 -26 28 -35 25 -28 -10 l6 -30 -71 30 c-39 16 -74
30 -78 30 -13 0 7 -86 28 -116 12 -17 45 -46 74 -63 29 -17 62 -43 74 -58 l20
-26 -20 -14 c-29 -21 -84 -27 -121 -14 -18 6 -33 10 -34 9 -1 -2 20 -52 47
-112 27 -59 47 -111 43 -114 -3 -3 -41 2 -86 12 -45 10 -83 16 -85 13 -2 -2
-1 -18 2 -36 5 -25 11 -31 24 -28 11 3 22 -4 30 -17 6 -11 41 -44 78 -71 37
-28 68 -58 70 -67 6 -33 -80 -34 -170 -2 -33 11 -38 11 -38 -2 0 -30 30 -72
67 -95 l37 -23 -32 -7 c-34 -7 -110 4 -141 21 -32 17 -33 12 -5 -41 38 -77 65
-99 117 -99 42 0 147 -43 147 -60 0 -5 -14 -20 -31 -34 -35 -30 -73 -33 -124
-12 -34 15 -35 15 -35 -10 0 -23 -2 -24 -80 -24 -44 0 -80 -4 -80 -8 0 -17 77
-85 124 -110 l51 -27 -62 -3 c-35 -2 -63 -7 -63 -13 0 -14 47 -59 62 -59 7 0
0 -11 -16 -23 l-29 -23 62 -49 c33 -26 61 -51 61 -56 0 -19 -74 -30 -155 -24
-47 4 -85 4 -85 -1 0 -4 8 -17 19 -28 42 -47 181 -240 181 -252 0 -7 -9 -18
-20 -24 -18 -10 -43 -3 -102 28 -5 2 -8 0 -8 -5 0 -5 25 -30 56 -56 l56 -47
-74 0 c-41 0 -96 6 -121 14 l-47 14 31 -39 c45 -57 103 -101 194 -147 44 -23
76 -41 72 -42 -4 0 -21 7 -36 15 -16 8 -50 19 -75 25 -56 12 -105 -4 -131 -44
-16 -24 -16 -27 4 -54 33 -47 90 -92 115 -92 13 0 38 -6 56 -14 32 -13 32 -14
12 -25 -11 -6 -57 -11 -101 -11 -45 0 -81 -3 -81 -6 0 -3 16 -33 37 -65 20
-33 33 -62 30 -65 -4 -4 -25 -2 -49 4 -49 13 -53 11 -39 -16 6 -12 11 -46 11
-76 l0 -56 2480 0 2481 0 -3 58 c-3 53 -5 57 -29 60 -17 2 -29 11 -32 23 -4
16 0 19 24 19 31 0 34 6 20 29 -7 10 -5 18 5 26 22 16 7 45 -24 45 -26 0 -25
1 11 25 44 30 52 60 11 45 -38 -15 -41 -13 -36 20 l4 30 -42 -15 c-23 -8 -46
-15 -49 -15 -4 0 -4 25 -1 56 4 37 2 64 -7 80 -12 24 -11 26 22 40 19 8 53 14
75 14 38 0 41 2 34 23 -4 12 -11 25 -17 29 -6 3 2 8 18 10 34 4 44 24 16 33
-17 5 -19 10 -11 26 10 18 7 19 -50 19 -58 0 -60 1 -55 23 6 21 3 22 -48 22
-55 0 -111 27 -135 66 -10 16 -5 17 72 13 73 -4 85 -2 100 15 10 11 15 25 11
30 -3 6 2 11 13 11 16 0 82 41 115 70 4 3 1 22 -7 41 -14 33 -14 35 17 60 21
17 28 31 24 42 -11 29 -37 31 -83 9 -24 -12 -44 -18 -44 -12 0 5 -17 12 -37
15 -48 8 -93 25 -93 35 0 19 32 32 64 26 31 -6 34 -5 29 14 -4 14 1 22 18 28
15 6 19 11 10 16 -9 6 -4 15 14 34 64 64 67 118 5 95 -16 -6 -32 -8 -35 -4 -2
5 -26 6 -52 4 -36 -3 -56 1 -80 16 -18 12 -33 25 -33 30 0 9 47 21 82 21 34 0
72 54 70 102 0 15 4 30 9 33 25 16 3 25 -59 25 -47 0 -74 5 -88 16 -18 14 -17
15 14 11 34 -4 38 3 21 34 -9 17 -7 21 11 26 14 4 19 11 15 21 -3 8 0 21 7 30
11 13 10 14 -9 8 -33 -10 -150 -9 -169 2 -15 8 -7 15 49 40 51 24 68 36 73 57
8 33 2 38 -41 39 -19 1 -35 4 -35 8 0 17 58 63 109 86 l54 25 -28 24 c-21 18
-37 24 -61 21 -28 -3 -31 -2 -23 13 13 25 11 32 -6 25 -9 -3 -15 0 -15 9 0 11
-11 9 -46 -10 -26 -14 -57 -25 -69 -25 -28 0 -61 27 -70 58 -6 20 -4 21 17 13
25 -9 49 -4 60 13 5 8 11 7 20 -2 16 -16 28 -15 28 3 0 8 25 27 55 43 l56 28
-31 28 c-42 36 -35 56 23 73 26 7 47 18 47 23 0 14 -75 50 -103 50 -12 0 -28
-5 -35 -12 -8 -8 -10 -2 -5 25 3 21 4 37 2 37 -2 0 -32 -9 -66 -20 -78 -24
-112 -14 -113 33 0 10 8 17 20 17 11 0 20 5 20 11 0 8 5 7 15 -1 12 -10 19
-10 27 -2 6 6 24 8 39 5 43 -8 62 2 49 27 -9 16 -8 20 5 20 11 0 15 10 15 35
0 33 2 35 25 29 22 -5 25 -3 25 19 0 25 23 57 41 57 5 0 9 7 9 15 0 14 -13 20
-34 16 -5 -1 -13 4 -17 11 -6 9 -14 7 -33 -11 l-25 -24 6 39 c6 38 5 38 -13
23 -31 -27 -101 -59 -128 -59 -25 0 -66 41 -66 66 0 16 16 18 25 4 4 -6 15 -8
24 -5 10 3 24 -1 31 -10 16 -19 30 -4 30 33 l0 23 30 -21 c26 -18 31 -19 36
-6 3 8 3 20 -1 27 -5 8 -1 9 14 4 16 -5 21 -2 21 13 0 11 7 25 15 32 8 7 15
18 15 25 0 7 9 15 20 18 12 3 20 14 20 26 0 25 -60 39 -102 23 -27 -10 -28 -9
-22 15 6 24 5 25 -21 19 -18 -5 -31 -3 -36 5 -5 9 -11 10 -21 2 -21 -17 -73
-25 -101 -14 -33 13 -57 49 -63 97 l-5 39 15 -40 c9 -22 16 -41 16 -42 0 -2 5
-3 10 -3 6 0 10 8 10 17 0 14 4 13 25 -7 26 -24 30 -21 37 25 3 16 8 12 26
-19 18 -31 26 -37 33 -25 5 8 9 22 9 32 0 13 5 16 25 11 18 -4 30 1 50 22 l26
28 -48 48 c-43 44 -52 49 -85 46 -42 -4 -40 8 11 56 17 17 31 33 31 37 0 5
-16 11 -35 15 l-35 6 40 44 c44 48 50 73 20 81 -19 5 -19 6 5 47 26 44 24 56
-7 56 -15 0 -17 3 -8 19 5 11 10 30 10 42 0 21 -1 22 -20 4 -11 -10 -20 -25
-20 -34 -1 -14 -2 -14 -14 2 -19 24 -23 22 -36 -18 -12 -36 -55 -95 -70 -95
-11 0 -22 64 -14 83 3 9 19 20 36 26 35 12 90 56 81 65 -4 3 -16 6 -27 6 -12
0 -30 7 -40 15 -19 14 -18 15 16 15 44 0 56 15 32 41 -16 18 -16 20 -1 37 18
20 23 52 9 52 -5 0 -17 -9 -27 -20 -21 -24 -37 -26 -29 -5 4 8 2 15 -3 15 -4
0 -19 -28 -33 -62 -14 -36 -26 -55 -28 -45 -4 19 15 83 47 165 17 43 18 52 6
52 -8 0 -21 -12 -28 -27 l-14 -26 -8 49 c-8 55 -21 84 -37 84 -7 0 -9 -23 -4
-75z m-5 -385 l-1 -25 -8 25 c-4 14 -8 32 -9 40 -1 13 0 13 9 0 5 -8 9 -26 9
-40z m-9 -139 c0 -12 -6 -9 -20 9 -26 33 -26 48 0 25 11 -10 20 -25 20 -34z
m130 -59 c-22 -40 -60 -72 -60 -51 0 15 74 108 78 98 2 -5 -6 -26 -18 -47z
m-1164 -207 c9 -39 0 -30 -15 15 -6 19 -7 30 -2 25 5 -6 13 -23 17 -40z m-22
-101 c18 -17 22 -39 6 -29 -11 7 -33 45 -26 45 2 0 12 -7 20 -16z m140 -66
c-16 -34 -64 -77 -64 -58 0 9 68 90 76 90 2 0 -3 -15 -12 -32z m-1804 -119
c17 -30 6 -34 -14 -4 -9 14 -12 25 -7 25 6 0 15 -9 21 -21z m115 -51 c-8 -25
-46 -71 -53 -64 -4 5 49 85 56 86 2 0 0 -10 -3 -22z m2510 -29 c16 -6 12 -8
-16 -8 -24 -1 -42 6 -54 19 -17 19 -17 19 16 8 19 -6 43 -14 54 -19z m-3567
-17 c6 -9 12 -22 12 -30 0 -17 -61 26 -68 47 -6 18 39 4 56 -17z m2518 -292
c13 0 24 -4 24 -10 0 -16 -44 -12 -66 6 -17 14 -17 15 -1 10 10 -3 30 -6 43
-6z m-655 -132 c6 -11 9 -22 6 -24 -5 -6 -57 35 -57 46 0 15 40 -2 51 -22z
m-1637 -45 c-34 -50 -39 -54 -42 -34 -3 16 8 35 34 62 21 21 40 36 43 34 2 -3
-13 -31 -35 -62z m656 24 c8 -3 4 -6 -11 -6 -14 -1 -34 6 -45 14 -18 14 -17
14 11 6 17 -5 37 -12 45 -14z m1483 -390 c-7 -5 -38 -11 -68 -14 -51 -5 -54
-5 -60 20 -4 14 -2 35 5 46 11 21 11 21 74 -11 47 -24 60 -35 49 -41z m-310
14 c-28 -41 -43 -51 -43 -29 0 13 61 80 67 74 3 -2 -8 -22 -24 -45z m242 -111
c17 -11 41 -20 55 -20 l25 0 -28 -27 c-21 -22 -36 -28 -72 -28 -48 0 -54 -5
-30 -25 8 -7 15 -16 15 -21 0 -16 -42 -30 -71 -24 -23 5 -29 11 -24 26 3 10 6
41 7 68 0 48 1 51 34 61 29 10 34 15 29 33 -6 22 -6 22 12 -1 10 -12 32 -32
48 -42z m-113 -177 c15 -15 28 -33 28 -40 0 -19 -45 -45 -72 -41 -31 4 -37 44
-8 53 17 5 20 12 16 31 -8 31 1 30 36 -3z m238 -107 c0 -15 -62 -59 -100 -71
-14 -4 -29 -13 -35 -20 -5 -6 -23 -17 -39 -23 -26 -12 -28 -11 -21 5 4 10 12
30 17 46 5 15 18 27 27 27 9 0 27 7 39 16 20 14 22 14 22 -2 0 -16 2 -16 20 1
15 14 20 15 21 4 0 -8 4 -4 9 9 10 24 40 31 40 8z m646 -25 c-4 -5 6 -18 20
-29 16 -11 24 -24 20 -30 -10 -17 -58 -15 -82 3 -18 14 -18 14 9 15 24 0 27 3
21 25 -4 16 -2 25 6 25 6 0 9 -4 6 -9z m-2478 -61 c7 -11 21 -20 31 -20 11 0
23 -5 26 -11 5 -7 15 -4 32 7 20 12 27 13 33 4 6 -9 10 -8 17 5 9 16 11 15 16
-4 5 -22 -23 -51 -51 -51 -8 0 -12 -9 -10 -22 2 -18 -4 -24 -35 -31 -48 -12
-93 -2 -78 17 16 19 5 23 -44 16 l-45 -7 40 34 c26 23 40 43 40 59 0 29 11 31
28 4z m192 -4 c0 -16 -18 -31 -27 -22 -8 8 5 36 17 36 5 0 10 -6 10 -14z
m2390 -66 c0 -22 15 -27 26 -8 5 7 10 3 16 -12 8 -22 9 -22 28 -5 19 18 20 17
20 -8 0 -29 9 -34 27 -16 7 7 12 6 16 -4 9 -24 -44 -40 -120 -36 l-68 4 2 -29
c2 -27 0 -28 -32 -23 -18 3 -45 13 -60 23 -33 21 -18 34 42 34 40 0 42 2 65
50 24 52 38 63 38 30z m-1697 -161 l62 -39 -55 0 c-31 0 -61 -5 -68 -12 -8 -8
-12 -8 -12 -1 0 6 -16 9 -42 6 -32 -3 -49 1 -68 16 -30 24 -26 29 24 33 33 2
43 8 59 36 17 29 21 32 30 17 5 -9 37 -34 70 -56z m-1803 41 c0 -5 -2 -10 -4
-10 -3 0 -8 5 -11 10 -3 6 -1 10 4 10 6 0 11 -4 11 -10z m834 -15 c27 -20 14
-29 -66 -44 -85 -16 -107 -4 -37 20 29 10 57 23 63 29 13 13 17 12 40 -5z
m2713 -192 c19 -20 20 -23 5 -23 -23 0 -129 34 -139 44 -4 5 9 7 30 4 20 -2
37 -1 37 3 0 14 45 -5 67 -28z m-887 -125 c0 -9 -5 -18 -11 -20 -6 -2 -11 -17
-11 -33 0 -17 -5 -36 -12 -44 -6 -8 -10 -17 -9 -20 3 -7 -49 -22 -54 -17 -2 2
10 19 27 37 25 28 28 35 14 37 -9 2 -21 -1 -27 -7 -15 -15 -40 -14 -34 2 2 6
9 12 16 12 7 0 19 8 26 19 8 10 18 15 23 12 5 -3 10 0 9 7 0 6 1 22 1 35 2 20
4 21 22 10 11 -7 20 -20 20 -30z m-409 -62 c-17 -20 -4 -39 24 -34 17 4 21 1
18 -11 -2 -9 13 -33 36 -56 44 -42 49 -56 28 -73 -9 -8 -29 -7 -72 3 -67 15
-100 7 -115 -27 -93 -225 -103 -245 -139 -278 -31 -29 -41 -49 -60 -122 -22
-82 -24 -120 -6 -161 6 -16 4 -18 -15 -15 -30 4 -41 43 -29 95 5 21 6 71 3
111 -5 61 -9 72 -23 68 -9 -3 -49 -12 -90 -21 l-73 -15 -86 29 c-80 28 -88 29
-104 14 -10 -9 -18 -28 -18 -42 l0 -25 -16 22 c-16 23 -17 23 -36 5 -41 -37
-51 -72 -45 -160 4 -77 3 -83 -14 -83 -12 0 -19 7 -19 19 0 11 -4 22 -9 25 -5
3 -5 25 0 48 4 24 8 64 9 89 0 31 7 55 20 72 23 29 25 46 8 82 -9 19 -8 34 2
65 11 34 11 42 -4 65 -10 15 -14 34 -11 45 8 26 -20 73 -58 95 -21 12 -26 20
-17 23 7 3 30 -13 49 -34 l36 -39 205 -3 c116 -2 238 2 280 8 41 6 90 14 109
16 24 4 44 18 70 47 51 60 165 174 170 171 2 -2 -2 -10 -8 -18z m459 -29 c0
-8 -7 -14 -15 -14 -11 0 -12 4 -4 14 6 7 13 13 15 13 2 0 4 -6 4 -13z m347
-128 c26 -6 111 -14 188 -18 119 -6 147 -11 185 -31 32 -17 40 -25 28 -28 -27
-5 -22 -41 7 -52 16 -6 23 -14 19 -25 -3 -8 -2 -15 3 -15 6 0 15 -11 21 -25
15 -32 15 -38 2 -30 -5 3 -10 -1 -10 -9 0 -9 5 -16 10 -16 6 0 10 -6 10 -12 0
-20 -24 -61 -34 -60 -10 1 -12 10 -23 74 -8 55 -27 67 -59 37 -21 -19 -24 -31
-22 -71 3 -42 9 -54 46 -90 23 -23 42 -45 42 -49 0 -4 -16 8 -36 28 -34 33
-37 34 -55 17 -18 -16 -19 -16 -19 4 0 40 -36 52 -115 40 -84 -12 -237 9 -264
38 -15 16 -14 16 4 9 11 -5 39 -10 62 -13 59 -6 64 14 19 74 -40 52 -43 66
-21 84 8 7 13 22 11 34 -3 11 -5 29 -5 38 -1 10 -16 34 -33 55 -18 20 -28 34
-21 30 6 -4 33 -12 60 -18z m-2892 -17 c21 -17 33 -37 76 -125 36 -71 63 -97
106 -97 30 0 44 9 99 65 35 36 70 65 78 65 8 0 27 11 42 25 21 19 29 22 36 13
6 -10 8 -10 8 1 0 22 27 -6 33 -34 3 -17 0 -25 -9 -25 -8 0 -14 -11 -14 -25 0
-14 -4 -25 -8 -25 -5 0 -14 -25 -21 -55 -13 -57 -83 -158 -119 -169 -49 -16
-83 -133 -44 -155 9 -6 13 -11 8 -11 -5 0 -3 -7 4 -15 7 -9 10 -19 6 -22 -4
-4 -11 -1 -16 7 -5 8 -22 14 -37 14 -20 -1 -22 0 -5 3 25 5 29 21 8 29 -8 3
-17 12 -20 19 -3 9 0 12 11 8 11 -4 14 -1 11 13 -2 10 -10 18 -16 16 -7 -1
-12 9 -12 23 0 14 -5 25 -11 25 -7 0 -31 16 -55 35 -47 39 -54 42 -54 20 0 -8
-5 -15 -11 -15 -22 0 -37 -26 -27 -46 6 -12 2 -9 -11 6 -11 14 -21 29 -21 33
0 5 -4 6 -10 2 -6 -4 -6 -15 1 -32 5 -14 7 -28 5 -31 -3 -3 -8 3 -11 12 -3 9
-7 23 -10 32 -3 8 -9 12 -15 9 -6 -4 -10 5 -10 19 0 14 -4 26 -10 26 -5 0 -7
7 -4 15 4 8 3 15 0 15 -4 0 -10 -10 -15 -22 -8 -21 -8 -21 -13 5 -3 16 -1 24
5 20 7 -4 8 0 4 12 -4 9 -2 24 4 31 9 11 8 14 -1 14 -8 0 -9 4 -3 13 10 14 17
67 8 67 -3 0 -12 -15 -20 -32 -16 -38 -20 -19 -6 30 8 28 7 32 -8 32 -25 0
-43 -24 -43 -55 0 -34 -14 -32 -21 3 -3 16 -1 31 6 37 7 6 11 18 9 28 -2 9 1
17 7 17 5 0 12 8 15 18 7 20 79 65 89 56 3 -3 11 -3 18 1 17 11 -31 35 -56 29
-16 -4 -17 -3 -5 5 16 11 57 5 79 -13 11 -9 13 -8 9 4 -2 8 -17 22 -31 30 -25
14 -30 13 -64 -5 -21 -11 -48 -35 -60 -54 -13 -19 -23 -28 -23 -21 0 7 20 32
44 56 48 49 85 56 121 26z m-85 -62 c-20 -13 -33 -13 -25 0 3 6 14 10 23 10
15 0 15 -2 2 -10z m3560 -18 c0 -4 -16 -6 -35 -4 -19 2 -35 6 -35 8 0 2 16 4
35 4 19 0 35 -4 35 -8z m290 -13 c0 -6 13 -21 29 -34 19 -17 31 -38 35 -65 7
-48 28 -59 96 -53 75 6 87 12 100 43 7 16 16 27 21 24 5 -3 6 1 3 9 -3 8 2 20
11 27 12 10 15 10 15 -4 0 -9 7 -16 15 -16 8 0 15 -7 15 -15 0 -8 4 -15 9 -15
9 0 -1 -69 -13 -89 -5 -7 -14 -10 -22 -7 -8 3 -11 0 -7 -9 3 -8 10 -12 15 -9
6 4 5 -2 -1 -14 -6 -12 -16 -24 -21 -27 -6 -3 -10 -16 -10 -27 0 -30 -49 -91
-67 -84 -8 3 -11 2 -8 -3 8 -14 -15 -25 -47 -23 -19 2 -28 -3 -33 -18 -8 -26
-45 -27 -45 -1 0 11 -5 23 -10 26 -6 4 -7 11 -4 17 4 6 2 8 -3 5 -6 -4 -28 5
-49 19 -66 45 -75 72 -57 169 16 88 16 95 -1 95 -13 0 -26 19 -32 47 -1 7 9
22 23 33 25 19 43 19 43 -1z m-2744 -7 c30 -24 33 -44 12 -64 -10 -10 -18 -15
-18 -12 0 3 -4 3 -9 0 -5 -3 -3 -33 5 -68 22 -101 19 -123 -21 -163 -20 -19
-41 -35 -47 -35 -18 0 -48 -31 -48 -50 0 -27 -28 -33 -42 -10 -7 11 -21 20
-32 20 -30 0 -93 41 -106 69 -7 14 -20 41 -29 60 -9 19 -15 41 -13 48 2 7 -1
13 -6 13 -12 0 -23 26 -28 64 -3 20 2 34 16 46 11 10 20 22 20 29 0 23 16 9
42 -38 l27 -49 65 -7 c36 -4 72 -5 80 -2 8 3 22 29 31 57 10 30 27 57 41 67
13 8 24 22 24 29 0 18 10 17 36 -4z m2344 -12 c0 -5 -5 -10 -11 -10 -5 0 -7 5
-4 10 3 6 8 10 11 10 2 0 4 -4 4 -10z m-565 -158 c-2 -9 -4 -39 -6 -67 l-2
-50 -7 65 c-4 36 -6 68 -3 73 8 13 21 -2 18 -21z m-2948 -14 c-3 -8 -6 -5 -6
6 -1 11 2 17 5 13 3 -3 4 -12 1 -19z m1020 -270 c-3 -8 -6 -5 -6 6 -1 11 2 17
5 13 3 -3 4 -12 1 -19z m3010 0 c-3 -8 -6 -5 -6 6 -1 11 2 17 5 13 3 -3 4 -12
1 -19z m-3096 -1 c-1 -12 -15 -9 -19 4 -3 6 1 10 8 8 6 -3 11 -8 11 -12z
m3199 -7 c0 -5 -8 -10 -17 -10 -15 0 -16 2 -3 10 19 12 20 12 20 0z m-3080
-14 c0 -9 -30 -14 -35 -6 -4 6 3 10 14 10 12 0 21 -2 21 -4z m2976 -15 c-4 -6
-14 -7 -23 -4 -15 6 -14 7 3 13 22 9 29 6 20 -9z"/>
<path d="M2893 6483 c-25 -9 -14 -30 12 -25 14 2 24 9 22 15 -4 13 -18 17 -34
10z"/>
<path d="M2600 5350 l0 -350 38 0 37 0 -3 155 -3 155 71 0 70 0 0 35 0 34 -67
3 -68 3 -3 90 c-2 50 0 105 3 123 l6 32 79 0 80 0 0 35 0 35 -120 0 -120 0 0
-350z"/>
<path d="M2930 5694 c0 -3 23 -89 50 -191 l50 -185 0 -159 0 -159 35 0 35 0 0
148 0 147 55 200 c30 109 55 201 55 203 0 2 -17 2 -37 0 l-38 -3 -30 -112
c-17 -61 -33 -114 -36 -118 -4 -3 -20 47 -36 112 l-29 118 -37 3 c-20 2 -37 0
-37 -4z"/>
<path d="M3290 5350 l0 -350 35 0 34 0 3 106 3 106 45 -106 45 -106 38 0 c20
0 37 4 37 8 0 5 -20 53 -45 108 -25 54 -45 104 -45 109 0 6 13 16 29 22 57 21
66 50 66 218 0 214 -15 235 -165 235 l-80 0 0 -350z m160 270 c19 -12 28 -239
11 -282 -9 -25 -16 -28 -56 -28 l-45 0 0 160 0 160 38 0 c20 0 44 -5 52 -10z"/>
<path d="M3620 5350 l0 -350 120 0 120 0 0 35 0 35 -85 0 -85 0 0 120 0 120
70 0 70 0 0 38 0 37 -67 0 -68 0 0 120 0 120 83 3 82 3 0 34 0 35 -120 0 -120
0 0 -350z"/>
<path d="M4120 5350 l0 -350 35 0 35 0 0 155 0 155 70 0 70 0 0 35 0 34 -67 3
-68 3 -3 123 -3 122 86 0 85 0 0 35 0 35 -120 0 -120 0 0 -350z"/>
<path d="M4516 5673 c-9 -42 -116 -657 -116 -665 0 -5 15 -8 34 -8 l34 0 12
70 12 70 63 0 c71 0 69 3 80 -87 l7 -53 37 0 37 0 -43 248 c-24 136 -51 293
-61 350 l-17 102 -37 0 c-32 0 -37 -4 -42 -27z m69 -322 c13 -74 23 -137 21
-139 -2 -2 -26 -2 -53 0 l-49 3 26 143 c14 78 26 139 27 135 2 -5 14 -69 28
-142z"/>
<path d="M4800 5350 l0 -350 35 0 35 0 2 218 3 217 23 -87 24 -88 34 0 c33 0
34 1 55 73 11 39 22 77 24 82 2 6 4 -86 4 -202 l1 -213 35 0 35 0 0 350 0 350
-33 0 -33 0 -39 -137 c-21 -76 -41 -144 -45 -151 -3 -7 -19 31 -34 85 -62 222
-53 203 -92 203 l-34 0 0 -350z"/>
<path d="M5190 5350 l0 -350 35 0 35 0 0 350 0 350 -35 0 -35 0 0 -350z"/>
<path d="M5350 5350 l0 -350 118 0 118 0 -2 28 c-1 15 -3 30 -3 35 -1 4 -37 7
-81 7 l-80 0 0 315 0 315 -35 0 -35 0 0 -350z"/>
<path d="M5600 5688 c0 -7 21 -85 47 -173 46 -159 47 -161 51 -337 l4 -178 34
0 34 0 0 151 c0 151 0 152 50 333 28 99 53 189 56 199 4 14 -1 17 -33 17 l-39
0 -23 -87 c-12 -49 -27 -106 -33 -128 l-11 -40 -24 90 c-13 50 -28 107 -34
128 -9 34 -13 37 -44 37 -21 0 -35 -5 -35 -12z"/>
<path d="M6150 5350 l0 -350 35 0 35 0 0 155 0 155 65 0 65 0 0 38 0 37 -65
-3 -65 -4 0 126 0 126 85 0 85 0 0 35 0 35 -120 0 -120 0 0 -350z"/>
<path d="M6536 5673 c-9 -39 -116 -656 -116 -665 0 -5 15 -8 34 -8 37 0 36 -2
51 98 l7 42 63 0 63 0 11 -50 c6 -28 11 -60 11 -70 0 -16 7 -20 38 -20 l38 0
-42 243 c-24 133 -51 290 -61 349 l-18 108 -37 0 c-32 0 -37 -4 -42 -27z m68
-318 c14 -76 24 -141 22 -143 -2 -2 -26 -2 -53 0 l-49 3 25 142 c14 78 26 141
28 140 1 -1 13 -65 27 -142z"/>
<path d="M6820 5350 l0 -350 35 0 35 0 0 108 1 107 46 -107 47 -108 38 0 c21
0 38 2 38 5 0 3 -21 51 -46 107 -25 57 -47 108 -50 113 -2 6 11 17 31 24 57
20 65 47 65 227 l0 156 -34 34 c-33 33 -36 34 -120 34 l-86 0 0 -350z m158
268 c8 -8 12 -56 12 -148 0 -92 -4 -140 -12 -148 -7 -7 -29 -12 -50 -12 l-38
0 0 160 0 160 38 0 c21 0 43 -5 50 -12z"/>
<path d="M7150 5350 l0 -350 35 0 35 0 1 213 c0 116 2 208 4 202 2 -5 13 -43
25 -82 21 -72 21 -73 55 -73 32 0 35 3 45 43 39 146 39 147 39 -85 l1 -218 35
0 35 0 0 350 0 350 -34 0 c-39 0 -30 19 -92 -203 -15 -54 -31 -92 -34 -85 -4
7 -24 75 -45 151 l-38 137 -33 0 -34 0 0 -350z"/>
<path d="M3310 4901 c0 -6 7 -40 15 -77 9 -36 14 -68 12 -70 -2 -3 -12 7 -21
21 -9 14 -23 25 -31 25 -14 0 -14 -3 -1 -29 9 -16 18 -48 22 -71 l7 -43 -204
4 c-112 2 -284 2 -382 1 l-177 -2 0 -1735 c0 -1580 2 -1735 16 -1735 11 0 14
-5 10 -16 -3 -9 -6 -18 -6 -20 0 -3 -5 -2 -10 1 -7 4 -10 -41 -8 -137 l3 -143
50 0 c43 0 50 3 53 21 2 11 -4 27 -13 34 -8 7 -15 18 -15 26 0 10 6 11 30 2
44 -15 53 -38 29 -74 -25 -38 -24 -43 6 -54 19 -7 25 -17 25 -40 l0 -31 -22
26 c-14 15 -38 28 -60 32 -33 5 -39 3 -47 -18 -9 -23 -10 -23 -10 7 -1 17 -8
37 -16 44 -13 11 -15 -13 -15 -209 1 -143 5 -221 11 -221 6 0 19 4 29 10 12 6
28 6 50 -1 28 -10 30 -13 16 -28 -26 -28 -19 -50 17 -59 22 -6 33 -15 35 -31
3 -20 1 -21 -16 -10 -16 10 -26 8 -57 -11 l-37 -23 7 24 c15 45 12 54 -20 54
l-30 0 -3 -118 c-2 -111 -2 -117 17 -117 16 0 24 13 39 63 15 48 21 58 27 43
5 -11 3 -21 -4 -25 -16 -10 -11 -81 5 -81 7 0 28 21 46 46 l33 47 3 -42 c4
-47 8 -48 61 -21 l39 19 6 -24 c5 -21 12 -25 46 -25 23 0 40 5 40 11 0 8 4 8
13 1 15 -13 130 -14 122 -1 -4 5 -12 9 -20 9 -7 0 -16 11 -19 24 -4 17 -15 26
-35 31 -35 8 -47 20 -54 60 -4 25 2 37 34 72 41 45 49 70 24 79 -11 5 -12 11
-5 24 6 10 10 23 10 29 0 19 -37 12 -52 -10 -14 -21 -14 -21 -25 15 -11 34
-10 36 12 36 12 0 28 7 35 15 17 21 -4 45 -40 45 -39 0 -60 28 -60 83 0 46 0
46 -26 37 -40 -16 -41 -12 -5 19 25 22 32 33 26 50 -5 16 -2 21 11 21 20 0 43
28 44 51 0 19 24 42 33 33 3 -4 -1 -16 -9 -29 -12 -18 -12 -24 -1 -33 26 -22
58 26 57 85 -1 21 0 49 2 62 2 20 -3 27 -28 34 -30 9 -31 11 -20 39 9 25 8 32
-8 44 -11 8 -29 14 -39 14 -17 0 -19 5 -13 42 4 22 9 45 12 50 10 16 23 7 26
-19 2 -22 8 -28 26 -26 18 2 22 -2 22 -22 0 -23 2 -24 20 -15 11 6 20 8 20 5
0 -3 -9 -23 -20 -45 -25 -48 -25 -57 -2 -65 18 -5 42 -44 42 -65 0 -6 -6 -10
-13 -10 -24 0 -6 -63 29 -104 38 -44 38 -45 24 -66 -6 -10 -10 -11 -10 -2 0
21 -19 13 -35 -15 -15 -27 -15 -27 -9 24 3 29 3 57 -1 63 -10 16 -44 -7 -68
-47 -19 -33 -21 -34 -34 -17 -12 17 -14 17 -30 1 -15 -15 -16 -20 -4 -38 9
-15 10 -24 2 -32 -16 -16 -13 -49 5 -76 l16 -22 24 22 24 22 0 -26 c0 -21 5
-26 28 -29 22 -2 30 -11 42 -46 11 -34 19 -42 38 -42 22 0 24 3 19 30 -7 34 8
50 17 18 6 -24 -25 -87 -50 -101 -8 -4 -14 -15 -14 -24 0 -9 -7 -21 -17 -28
-21 -16 -8 -35 25 -36 l27 0 -25 -11 c-94 -38 -109 -58 -71 -92 17 -15 20 -15
34 -1 23 22 27 19 27 -22 l0 -38 60 0 c69 1 85 11 71 47 -7 19 -5 27 9 35 15
10 19 6 29 -26 6 -21 11 -43 11 -50 0 -19 33 -51 53 -51 14 0 17 4 12 18 -18
44 -18 52 4 52 27 0 28 31 1 55 -11 10 -20 22 -20 27 0 5 14 -5 30 -22 31 -32
38 -54 20 -65 -6 -4 -9 -20 -8 -36 l2 -29 223 0 c130 0 223 4 223 9 0 5 -11
18 -24 28 -13 11 -26 30 -28 44 -2 18 -10 25 -30 27 -19 2 -25 8 -21 18 3 9
-7 28 -24 47 -17 18 -33 40 -36 50 -9 23 -24 21 -38 -5 -6 -13 -23 -35 -37
-51 l-26 -27 -21 42 c-18 35 -27 43 -48 43 l-27 -1 27 23 28 23 -22 16 c-13 9
-23 21 -23 26 0 5 14 -1 30 -14 22 -16 30 -30 30 -54 0 -17 7 -38 16 -45 14
-12 19 -10 38 13 11 15 40 34 64 44 40 15 43 19 37 45 -4 18 -2 29 4 29 6 0
11 -7 11 -15 0 -9 7 -26 16 -40 14 -21 14 -26 0 -53 -13 -26 -14 -32 -1 -42
21 -18 51 -3 76 36 23 38 45 39 85 3 25 -24 50 -24 63 -2 14 27 25 8 26 -45 0
-52 -26 -89 -54 -75 -9 4 -31 7 -48 7 -18 0 -33 2 -33 6 0 16 -42 49 -55 44
-24 -10 -18 -31 16 -54 30 -22 54 -63 50 -87 -1 -10 18 -13 72 -13 l74 0 -5
53 -5 52 22 -19 c25 -22 27 -42 6 -50 -26 -10 -5 -36 29 -36 23 0 27 3 16 10
-13 8 -13 9 0 13 66 19 75 24 78 44 2 11 12 29 23 39 21 19 24 13 8 -18 -11
-21 -21 -88 -13 -88 2 0 18 15 35 32 24 26 28 28 19 10 -6 -13 -9 -27 -5 -30
4 -4 58 -9 121 -10 l114 -4 0 66 c0 45 -4 66 -12 66 -9 0 -9 3 0 12 8 8 12 54
12 140 0 121 -1 128 -20 128 -14 0 -20 7 -20 24 0 34 -24 51 -44 31 -9 -9 -16
-12 -16 -6 0 16 -31 13 -51 -5 -16 -14 -19 -14 -34 10 -10 14 -23 26 -31 26
-7 0 -16 11 -20 25 -3 14 -10 25 -14 25 -5 0 -6 9 -3 20 6 24 -21 37 -42 20
-10 -8 -15 -9 -15 -2 0 17 22 27 52 23 22 -2 29 3 34 23 3 14 3 30 -1 37 -5 7
-3 10 6 7 8 -3 18 -18 22 -34 5 -16 12 -41 17 -56 4 -15 4 -30 -2 -36 -12 -12
50 -65 69 -58 8 4 20 6 26 6 7 0 22 18 35 40 12 22 29 40 37 40 12 0 15 17 15
89 0 50 -4 93 -10 96 -6 4 -10 -12 -10 -39 0 -50 -10 -56 -40 -26 -30 30 -44
25 -36 -12 6 -30 5 -30 -12 -15 -10 10 -26 17 -35 17 -23 0 -21 -33 3 -55 11
-10 20 -23 20 -29 0 -6 -12 2 -25 17 -21 24 -25 38 -25 92 0 65 14 95 46 95
10 0 14 8 12 22 -4 27 -58 52 -65 31 -3 -7 -13 -13 -23 -13 -11 0 -24 -9 -30
-20 -14 -25 -46 -25 -87 0 -39 23 -44 50 -10 50 15 0 28 9 35 22 10 22 11 22
11 -7 1 -16 5 -36 10 -44 8 -13 12 -13 26 -1 9 8 25 14 36 15 11 1 30 11 42
23 31 29 47 28 47 -3 0 -19 5 -25 23 -25 12 0 29 4 37 10 9 6 17 5 22 -3 13
-21 9 -35 -12 -42 -11 -3 -20 -13 -20 -20 0 -19 34 -37 54 -29 23 9 24 429 1
438 -8 3 -15 10 -15 15 0 6 7 8 15 5 11 -4 15 1 15 17 0 29 -27 59 -47 52 -11
-4 -14 -2 -11 8 3 8 16 14 29 14 l24 0 5 695 c6 778 1 731 80 810 23 23 57 48
76 56 58 24 67 48 50 137 -8 41 -21 84 -28 96 -11 17 -10 25 5 50 9 16 17 31
17 34 0 3 -29 10 -65 17 -36 7 -68 16 -71 21 -3 5 -15 2 -27 -6 -12 -8 -31
-15 -42 -15 -25 0 -50 -14 -115 -68 -42 -34 -59 -42 -86 -40 -19 1 -34 3 -34
5 0 1 38 39 84 85 46 46 100 110 121 143 21 33 84 106 140 162 80 79 110 103
136 107 78 12 171 15 194 6 36 -14 43 8 10 34 -22 18 -27 28 -22 47 11 41 23
51 64 54 30 1 45 -4 62 -21 l21 -22 -40 -7 c-22 -4 -40 -9 -40 -12 0 -2 16
-19 35 -37 21 -20 35 -43 35 -57 0 -44 -20 -95 -45 -119 -14 -13 -25 -31 -25
-39 -2 -44 -85 -155 -137 -183 -63 -34 -54 -88 18 -114 33 -12 33 -12 -20 -9
-52 3 -71 14 -84 49 -3 6 -16 0 -32 -15 l-27 -27 12 -73 c22 -132 44 -159 102
-128 15 8 19 8 14 0 -17 -28 62 -31 730 -31 645 0 684 1 684 18 1 16 1 16 14
-1 12 -16 55 -17 702 -15 l689 3 3 705 c2 770 3 767 -55 842 -15 20 -48 49
-73 64 -39 25 -57 29 -132 32 -63 3 -88 8 -88 17 0 19 30 86 52 118 11 16 18
31 15 33 -11 12 -50 -20 -78 -64 l-29 -46 0 55 c0 61 -34 149 -51 132 -6 -6
-6 -18 0 -35 10 -27 25 -152 15 -128 -20 48 -77 67 -104 35 -10 -12 -8 -16 14
-25 29 -11 70 -70 57 -83 -4 -4 -50 -6 -102 -5 l-94 3 33 33 c17 19 32 38 32
43 0 15 -57 10 -70 -6 -17 -20 -30 -19 -30 3 0 25 -38 102 -50 102 -13 0 -13
-10 5 -60 19 -54 19 -65 -1 -46 -14 15 -44 22 -44 11 0 -2 11 -15 25 -29 14
-14 25 -32 25 -41 0 -13 -27 -15 -210 -15 -205 0 -210 0 -210 20 0 25 42 70
65 70 19 0 15 19 -7 33 -24 16 -64 0 -88 -35 l-21 -33 6 45 c4 25 11 49 16 55
12 12 12 45 0 45 -5 0 -16 -17 -24 -37 -13 -33 -16 -35 -23 -18 -11 31 -35 55
-55 55 -26 0 -33 -19 -15 -38 17 -19 40 -71 50 -114 l6 -26 -30 29 c-21 22
-38 29 -57 27 -30 -3 -45 -28 -16 -28 21 0 63 -27 63 -41 0 -12 -957 -12 -964
0 -3 5 10 33 29 61 20 29 34 55 31 57 -8 8 -43 -16 -69 -46 l-25 -30 -7 45
c-4 26 -16 56 -31 72 l-25 27 5 -30 c3 -16 8 -47 12 -69 l7 -39 -22 22 c-21
21 -46 26 -75 15 -20 -8 -21 -24 -1 -24 17 0 66 -50 59 -62 -3 -4 -81 -8 -175
-8 -140 0 -169 2 -169 14 0 8 9 18 20 21 11 4 18 10 15 15 -3 5 -16 5 -30 0
-30 -11 -32 -2 -10 40 9 17 11 30 6 30 -12 0 -48 -45 -56 -70 -6 -18 -8 -18
-40 -3 -38 18 -37 33 1 33 13 0 24 4 24 9 0 18 -39 22 -74 7 -32 -13 -34 -13
-29 2 10 26 51 89 63 97 15 9 12 25 -5 25 -22 0 -91 -66 -105 -100 -7 -17 -15
-30 -17 -30 -3 0 -14 12 -26 26 -25 32 -70 52 -103 46 -32 -6 -30 -18 6 -37
27 -14 80 -88 80 -112 0 -8 -170 -11 -550 -11 l-550 0 0 28 c0 15 9 58 21 95
11 37 18 70 14 73 -12 12 -45 -34 -63 -88 l-19 -54 -7 44 c-11 74 -38 150 -52
150 -8 0 -14 -4 -14 -9z m1385 -231 c4 -6 -8 -10 -29 -10 -37 0 -44 8 -24 28
11 11 41 2 53 -18z m-771 -178 c3 -5 -5 -8 -16 -8 -14 1 -28 -9 -37 -26 -22
-38 -6 -82 32 -86 23 -3 27 0 27 22 0 15 -7 26 -17 29 -13 3 -12 5 5 6 20 1
23 -3 20 -31 -3 -29 -7 -33 -34 -36 -26 -3 -33 1 -44 27 -21 51 4 110 47 111
6 0 14 -4 17 -8z m156 -12 c16 -16 18 -25 11 -39 -7 -11 -7 -30 -1 -50 5 -19
5 -31 -1 -31 -5 0 -9 10 -9 23 0 13 -5 28 -12 35 -9 9 -9 12 0 12 7 0 12 11
12 25 0 14 -4 25 -9 25 -5 0 -16 3 -25 6 -13 5 -16 -1 -16 -25 0 -18 5 -31 13
-31 9 0 9 -2 0 -8 -6 -4 -13 -21 -16 -37 -2 -17 -5 3 -6 43 -1 66 1 72 19 72
11 0 29 -9 40 -20z m160 -56 c13 -46 15 -63 6 -51 -7 9 -25 17 -40 17 -18 0
-26 -5 -27 -17 0 -11 -3 -13 -6 -6 -4 11 21 102 34 126 8 13 13 3 33 -69z
m163 21 l3 60 2 -72 c1 -40 0 -73 -3 -73 -2 0 -17 24 -32 53 l-28 52 -6 -55
c-6 -54 -6 -54 -7 20 l-1 75 34 -60 34 -59 4 59z m245 48 c-15 -4 -18 -17 -20
-71 l-2 -67 -3 60 c-3 41 -9 64 -20 73 -14 10 -11 12 23 11 21 -1 31 -3 22 -6z
m130 0 c-23 -4 -28 -9 -28 -34 0 -25 4 -29 28 -30 l27 -2 -27 -4 c-22 -3 -28
-10 -28 -28 0 -19 6 -24 33 -28 31 -4 31 -4 -5 -5 l-38 -2 0 70 0 70 33 -1
c30 -2 30 -2 5 -6z m272 -3 c0 -5 -10 -9 -22 -7 -18 2 -24 -4 -26 -25 -2 -18
1 -28 10 -28 9 0 10 -2 1 -8 -6 -4 -13 -21 -16 -37 -2 -17 -5 3 -6 43 l-1 72
30 0 c17 0 30 -4 30 -10z m140 -66 c13 -46 15 -63 6 -51 -17 22 -66 23 -66 0
0 -9 -3 -13 -6 -10 -7 7 13 89 28 120 13 25 16 21 38 -59z m434 67 c4 -5 -3
-7 -14 -4 -36 9 -36 -25 0 -62 28 -29 31 -37 20 -50 -7 -8 -24 -14 -39 -14
l-26 2 28 4 c36 6 35 28 -4 64 -25 24 -28 31 -19 49 11 20 44 27 54 11z m351
-60 c8 -49 18 -41 29 23 4 21 9 36 11 34 8 -8 -17 -128 -26 -128 -5 0 -11 12
-15 28 -10 44 -22 78 -23 62 -2 -30 -22 -90 -30 -90 -5 0 -12 21 -15 48 -4 26
-10 56 -13 67 -3 11 -2 17 2 13 4 -3 12 -30 19 -60 l12 -53 8 45 c12 72 17 86
26 69 4 -8 11 -34 15 -58z m169 -3 c18 -64 20 -81 5 -55 -6 10 -22 17 -39 17
-17 0 -30 4 -30 8 0 23 33 102 40 95 4 -4 15 -33 24 -65z m-1637 -35 c-2 -21
-4 -6 -4 32 0 39 2 55 4 38 2 -18 2 -50 0 -70z m816 -26 c31 -4 31 -4 -5 -5
l-38 -2 2 68 2 67 3 -62 c4 -61 4 -62 36 -66z m145 0 c25 -4 24 -4 -5 -6 l-33
-1 2 68 2 67 3 -62 c4 -58 5 -62 31 -66z m-2268 14 c0 -6 -4 -13 -10 -16 -5
-3 -10 1 -10 9 0 9 5 16 10 16 6 0 10 -4 10 -9z m1106 -98 c-7 -7 -26 7 -26
19 0 6 6 6 15 -2 9 -7 13 -15 11 -17z m2934 -13 c0 -5 -5 -10 -11 -10 -5 0 -7
5 -4 10 3 6 8 10 11 10 2 0 4 -4 4 -10z m-1693 -180 c7 -25 12 -72 13 -106 0
-33 6 -68 13 -77 17 -23 111 -54 207 -68 130 -19 210 -86 245 -205 10 -34 21
-54 31 -54 25 0 27 28 5 62 -63 99 -76 163 -41 198 11 11 33 20 50 20 34 0 61
-39 71 -102 5 -35 4 -36 -11 -23 -9 8 -20 15 -23 15 -14 0 -6 -47 18 -115 30
-85 31 -135 6 -184 -11 -20 -22 -48 -25 -62 -11 -50 -41 -74 -140 -109 -91
-33 -96 -36 -91 -59 10 -40 -42 -56 -81 -26 -18 15 -18 15 7 9 29 -6 42 6 33
30 -8 20 -43 20 -68 1 -11 -8 -39 -15 -63 -15 -24 0 -43 -2 -43 -4 0 -2 7 -20
15 -40 14 -33 19 -36 58 -37 23 -1 49 -1 59 0 9 1 20 -4 24 -11 4 -7 4 -10 -1
-6 -4 4 -16 3 -27 -3 -15 -8 -17 -13 -7 -25 15 -19 11 -18 -41 7 -37 18 -49
20 -80 10 -56 -17 -69 -13 -32 9 28 17 31 24 26 47 -16 66 -21 67 -72 25 -47
-40 -158 -104 -199 -116 -18 -6 -21 -4 -16 15 5 19 3 21 -16 16 -15 -4 -21 -2
-18 6 20 53 20 60 -2 54 -25 -6 -25 -5 -6 34 14 26 14 30 1 35 -14 5 -14 9 -1
34 8 16 12 37 8 46 -4 10 -2 15 3 11 5 -3 11 2 11 11 1 9 4 28 5 42 2 14 10
31 18 38 13 11 13 13 -2 23 -25 14 -23 23 14 64 26 30 29 38 17 46 -8 5 -24 8
-37 6 -17 -3 -22 -1 -18 10 3 7 -1 16 -10 20 -13 5 -13 7 -2 15 10 6 8 13 -11
29 -22 18 -23 21 -8 36 14 15 14 17 -5 32 -11 9 -22 32 -24 51 -13 93 -15 152
-5 163 5 7 8 22 5 34 -3 11 -1 24 5 27 5 4 7 13 4 22 -3 9 4 24 16 35 11 11
21 26 21 34 0 30 118 124 139 110 4 -2 13 0 21 5 18 11 38 -22 57 -90z m1942
53 c-1 -10 -5 -29 -9 -43 -7 -21 -8 -19 -9 18 -1 23 4 42 9 42 6 0 10 -8 9
-17z m-2524 -54 c11 -17 -1 -21 -15 -4 -8 9 -8 15 -2 15 6 0 14 -5 17 -11z
m-1219 -138 c-4 -6 -19 -11 -34 -10 -27 0 -27 0 -4 11 12 6 22 16 22 22 0 6 4
6 11 -1 6 -6 8 -16 5 -22z m2786 -148 c22 -20 24 -66 3 -83 -8 -7 -15 -16 -15
-21 0 -12 37 -11 45 1 3 6 24 10 45 10 22 0 59 5 83 12 48 12 122 4 111 -14
-4 -7 -3 -8 5 -4 6 4 24 -3 40 -16 16 -13 61 -43 101 -68 39 -25 92 -67 117
-93 24 -26 63 -59 86 -74 23 -14 55 -36 70 -49 15 -13 44 -31 63 -40 32 -15
33 -18 17 -30 -10 -7 -24 -14 -31 -14 -19 0 -104 39 -125 58 -12 11 -40 17
-85 18 -55 2 -78 -3 -130 -27 l-64 -29 20 -24 c17 -22 18 -37 14 -126 -4 -86
-2 -103 13 -120 17 -18 16 -19 -11 -25 -16 -4 -45 -11 -64 -16 -47 -12 -47
-12 -53 10 -4 17 -1 19 27 14 23 -4 38 0 51 13 15 16 17 30 12 113 -5 82 -9
98 -27 113 -29 24 -39 23 -50 -6 -9 -26 -25 -39 -50 -42 -8 -1 -24 -5 -35 -8
-11 -4 -8 0 7 8 18 11 29 28 34 52 8 41 3 47 -51 62 -50 14 -119 71 -155 128
-14 23 -40 54 -57 68 -39 33 -66 97 -54 128 5 13 18 31 30 42 22 20 20 39 -3
30 -8 -3 -17 -1 -20 5 -4 6 -13 8 -21 4 -18 -6 -19 8 -2 29 24 31 81 37 109
11z m-3841 -242 c-7 -5 -23 -6 -35 -3 -19 6 -18 7 9 12 34 7 46 3 26 -9z
m1554 -140 c-8 -17 -22 -31 -31 -31 -11 0 -8 9 13 35 32 41 41 39 18 -4z m755
-55 c0 -12 -5 -7 -19 24 -11 24 -11 24 3 6 9 -11 16 -24 16 -30z m-983 -63
c-3 -10 -5 -4 -5 12 0 17 2 24 5 18 2 -7 2 -21 0 -30z m933 -44 c-13 -24 -26
-24 -40 0 -8 16 -6 20 13 23 31 6 39 0 27 -23z m-857 1 c3 -12 0 -20 -8 -20
-8 0 -11 8 -8 20 3 11 7 20 8 20 1 0 5 -9 8 -20z m-233 -35 c11 -13 8 -15 -21
-15 -32 1 -33 1 -15 15 24 18 21 18 36 0z m969 -6 c63 -13 77 -31 22 -27 -23
2 -41 6 -41 10 0 3 -12 11 -27 16 -38 14 -15 14 46 1z m1815 -21 c-6 -16 -87
-51 -82 -36 4 11 66 48 80 48 4 0 5 -6 2 -12z m-3614 -28 c0 -5 -7 -10 -16
-10 -8 0 -12 5 -9 10 3 6 10 10 16 10 5 0 9 -4 9 -10z m-225 -60 c3 -5 3 -15
-1 -21 -6 -11 -23 6 -24 24 0 10 18 9 25 -3z m3440 0 c3 -5 1 -10 -4 -10 -6 0
-11 5 -11 10 0 6 2 10 4 10 3 0 8 -4 11 -10z m-580 -19 c3 -5 1 -12 -5 -16 -5
-3 -10 1 -10 9 0 18 6 21 15 7z m-2885 -87 c0 -8 -4 -12 -10 -9 -5 3 -10 13
-10 21 0 8 5 12 10 9 6 -3 10 -13 10 -21z m70 -19 c0 -13 -4 -27 -10 -30 -6
-4 -10 8 -10 30 0 22 4 34 10 30 6 -3 10 -17 10 -30z m1130 -134 c5 -11 10
-28 10 -38 0 -15 -4 -13 -26 9 -15 14 -23 31 -20 37 11 16 24 13 36 -8z m-100
-51 c0 -5 -7 -7 -15 -4 -8 4 -15 8 -15 10 0 2 7 4 15 4 8 0 15 -4 15 -10z
m-930 -15 c-7 -9 -15 -13 -17 -11 -7 7 7 26 19 26 6 0 6 -6 -2 -15z m1158 -1
c-10 -10 -21 -13 -29 -8 -12 7 0 14 41 23 2 1 -3 -6 -12 -15z m-438 -61 c-1
-19 -22 -53 -34 -53 -12 0 -6 58 7 63 22 9 27 7 27 -10z m-125 -12 c-3 -6 -11
-11 -17 -11 -6 0 -6 6 2 15 14 17 26 13 15 -4z m-561 -40 c-20 -21 -27 -8 -12
24 11 24 13 25 19 8 4 -10 1 -24 -7 -32z m1332 22 c-10 -10 -19 5 -10 18 6 11
8 11 12 0 2 -7 1 -15 -2 -18z m-508 -53 c-18 -28 -3 -49 58 -82 44 -25 46 -28
22 -28 -16 0 -41 12 -61 30 -41 36 -55 37 -67 8 l-9 -23 0 22 c-1 12 13 38 30
58 35 39 46 45 27 15z m-428 -20 c0 -13 -7 -20 -20 -20 -25 0 -25 9 -2 26 22
17 22 17 22 -6z m-570 -30 c0 -5 -7 -10 -15 -10 -8 0 -15 5 -15 10 0 6 7 10
15 10 8 0 15 -4 15 -10z m840 -25 c-15 -9 -37 -12 -54 -9 -28 6 -28 6 -21 -35
7 -43 -6 -56 -24 -24 -8 14 -12 15 -25 4 -21 -17 -20 -7 1 27 27 43 43 52 97
52 49 -1 50 -1 26 -15z m-745 -5 c8 -13 -5 -13 -25 0 -13 8 -13 10 2 10 9 0
20 -4 23 -10z m556 -49 c-16 -28 -14 -37 12 -49 14 -7 17 -11 7 -11 -27 -1
-60 29 -60 54 0 29 43 65 48 41 2 -8 -2 -24 -7 -35z m-81 18 c0 -18 -2 -19
-15 -9 -15 12 -12 30 6 30 5 0 9 -10 9 -21z m-520 -81 c0 -23 -4 -28 -25 -28
-23 0 -24 2 -13 20 10 16 10 24 0 40 -11 18 -10 19 13 8 18 -8 25 -19 25 -40z
m345 18 c11 -8 16 -15 10 -16 -5 0 -23 12 -40 26 -31 26 -6 18 30 -10z m863 6
c-4 -23 -22 -25 -47 -5 l-22 18 36 1 c27 0 35 -3 33 -14z m-1015 -22 c-3 -11
-7 -20 -9 -20 -2 0 -4 9 -4 20 0 11 4 20 9 20 5 0 7 -9 4 -20z m-418 -30 c50
-26 73 -80 44 -106 -25 -22 -35 -11 -21 21 20 44 16 58 -18 53 -26 -4 -30 -1
-30 18 0 12 -6 25 -12 27 -7 3 -11 6 -8 6 3 1 23 -8 45 -19z m1085 -78 c0 -52
-12 -67 -33 -44 -16 17 -16 20 -2 32 8 7 15 23 15 37 0 14 4 21 10 18 6 -3 10
-23 10 -43z m-222 10 c2 -7 -7 -12 -23 -12 -24 0 -26 2 -15 15 14 17 31 16 38
-3z m-690 -57 c-12 -27 -28 -33 -28 -10 0 11 23 33 37 35 2 0 -3 -11 -9 -25z
m132 -30 c7 -9 8 -15 2 -15 -5 0 -12 7 -16 15 -3 8 -4 15 -2 15 2 0 9 -7 16
-15z m1350 5 c12 -8 11 -10 -7 -10 -12 0 -25 5 -28 10 -8 13 15 13 35 0z
m-1146 -15 c3 -8 1 -15 -3 -15 -5 0 -11 7 -15 15 -3 8 -1 15 3 15 5 0 11 -7
15 -15z m-445 -66 c-19 -11 -20 -8 -6 37 l12 39 3 -34 c2 -20 -2 -37 -9 -42z
m1260 42 c23 -31 27 -51 11 -51 -5 0 -19 18 -30 40 -24 46 -11 54 19 11z
m-779 -61 c0 -10 -4 -22 -10 -25 -6 -4 -10 7 -10 25 0 18 4 29 10 25 6 -3 10
-15 10 -25z m918 -76 c12 -9 10 -14 -16 -33 -17 -12 -33 -17 -36 -12 -3 5 1
12 10 15 13 5 15 15 10 44 -6 32 -5 34 6 17 6 -11 18 -25 26 -31z m-633 -23
c-3 -6 -14 -11 -23 -11 -15 1 -15 2 2 15 21 16 32 13 21 -4z m469 13 c26 -10
8 -24 -31 -24 -30 0 -34 2 -23 15 13 16 29 19 54 9z m-708 -67 c31 -62 19 -52
-21 17 -15 27 -22 45 -16 42 6 -4 23 -31 37 -59z m309 22 c12 -19 -5 -23 -22
-6 -16 16 -16 17 -1 17 9 0 20 -5 23 -11z m650 -29 c-6 -17 -9 -19 -22 -9 -13
11 -13 14 3 26 22 16 28 11 19 -17z m-715 -28 c0 -17 -27 -41 -62 -56 -40 -16
-53 -5 -17 14 11 7 29 20 40 31 20 20 39 25 39 11z m190 -12 c15 -28 4 -43
-21 -30 -16 9 -17 14 -6 30 15 24 14 24 27 0z m-989 -10 l24 -21 -32 16 c-32
15 -42 25 -24 25 5 0 19 -9 32 -20z m227 3 c2 -8 -5 -13 -17 -13 -12 0 -21 6
-21 16 0 18 31 15 38 -3z m398 -28 c0 -37 -10 -46 -20 -19 -5 13 8 54 17 54 2
0 3 -16 3 -35z m604 6 c0 -5 -7 -11 -15 -15 -15 -5 -20 5 -8 17 9 10 23 9 23
-2z m-360 -22 c0 -5 -10 -9 -21 -9 -18 0 -19 2 -9 15 12 15 30 12 30 -6z
m-352 -7 c2 -7 -2 -10 -12 -6 -9 3 -16 11 -16 16 0 13 23 5 28 -10z m1072 -3
c0 -6 -4 -7 -10 -4 -5 3 -10 11 -10 16 0 6 5 7 10 4 6 -3 10 -11 10 -16z
m-647 -50 c-16 -16 -85 -18 -72 -2 9 11 68 22 78 15 3 -1 0 -7 -6 -13z m-921
-24 c-2 -14 -11 -25 -18 -25 -18 0 -18 9 3 32 21 23 21 23 15 -7z m778 15 c0
-12 -8 -12 -35 0 -18 8 -17 9 8 9 15 1 27 -3 27 -9z m-692 -40 c-14 -22 -24
-19 -15 5 4 8 11 15 17 15 6 0 6 -7 -2 -20z m370 0 c-14 -22 -24 -19 -15 5 4
8 11 15 17 15 6 0 6 -7 -2 -20z m-558 -10 c0 -12 10 -24 24 -30 22 -8 45 -30
32 -30 -3 0 -24 7 -46 16 -37 15 -51 39 -33 57 12 13 23 7 23 -13z m751 -34
c-16 -35 -31 -38 -31 -7 0 20 19 41 36 41 8 0 6 -10 -5 -34z m837 -6 c-2 -7
-10 1 -17 16 -12 27 -11 28 4 12 10 -9 16 -21 13 -28z m-68 16 c0 -2 -7 -9
-15 -16 -12 -10 -15 -10 -15 4 0 9 7 16 15 16 8 0 15 -2 15 -4z m-465 -15 c3
-6 -4 -15 -15 -21 -11 -6 -20 -21 -20 -34 0 -13 -6 -29 -14 -35 -11 -9 -12 -7
-9 13 3 13 0 34 -7 46 -11 20 -10 21 9 15 14 -4 23 -1 27 9 7 18 20 21 29 7z
m185 -18 c0 -5 -10 -19 -21 -33 l-20 -25 16 33 c15 30 25 41 25 25z m-1240
-73 c-15 -28 -4 -43 22 -29 22 12 68 4 68 -11 0 -6 -25 -10 -55 -10 -54 0 -55
0 -55 29 0 16 5 42 12 58 11 26 12 27 15 6 3 -12 -1 -31 -7 -43z m190 45 c0
-2 -10 -10 -22 -16 -21 -11 -22 -11 -9 4 13 16 31 23 31 12z m1533 -37 c-22
-24 -30 -14 -13 17 10 18 16 22 21 13 5 -7 1 -20 -8 -30z m-1193 4 c-13 -2
-29 3 -37 11 -13 13 -10 13 22 3 30 -9 32 -12 15 -14z m123 7 c4 -13 -2 -28
-15 -41 l-21 -21 6 24 c4 13 7 32 7 42 0 24 16 21 23 -4z m159 -21 c2 -13 15
-29 31 -36 35 -17 29 -26 -8 -12 -24 9 -30 7 -56 -21 l-29 -31 15 43 c14 39
14 45 0 55 -23 17 -18 24 14 24 23 0 30 -5 33 -22z m600 -56 c-2 -26 2 -50 12
-64 28 -40 21 -51 -29 -44 -35 6 -45 4 -45 -7 0 -21 -44 -10 -70 18 -28 30
-23 59 10 62 25 3 25 3 3 -7 -45 -19 -17 -50 40 -46 21 2 40 6 44 10 3 3 -2
24 -12 46 -18 39 -18 40 6 59 34 28 44 21 41 -27z m-291 1 c-4 -28 -6 -32 -9
-15 -3 22 3 52 11 52 1 0 1 -17 -2 -37z m70 20 c13 -15 12 -15 -8 -4 -24 12
-29 21 -14 21 5 0 15 -7 22 -17z m-711 -50 c0 -7 -3 -13 -6 -13 -12 0 -33 35
-33 55 -1 18 1 18 19 -5 11 -14 20 -31 20 -37z m834 48 c7 -11 -41 -24 -54
-16 -6 4 -10 10 -10 16 0 12 57 12 64 0z m167 -24 c-16 -16 -26 0 -10 19 9 11
15 12 17 4 2 -6 -1 -17 -7 -23z m-861 -12 c0 -8 0 -18 1 -22 0 -4 -4 -9 -9
-11 -12 -4 -24 26 -16 39 8 14 24 11 24 -6z m-373 -17 c-3 -8 -6 -5 -6 6 -1
11 2 17 5 13 3 -3 4 -12 1 -19z m737 -24 c5 -13 2 -15 -16 -10 -13 3 -33 6
-46 6 -13 0 -20 4 -17 10 10 17 72 12 79 -6z m-804 -29 c13 -40 8 -51 -42 -86
l-28 -20 20 46 c23 55 25 65 7 65 -7 0 -22 7 -33 15 -18 13 -16 14 23 15 39 0
42 -2 53 -35z m225 -18 c-19 -11 -55 0 -55 17 0 23 12 26 41 9 24 -14 26 -19
14 -26z m493 7 l22 -35 -22 3 c-16 2 -24 12 -29 36 -8 41 0 40 29 -4z m842 -6
c0 -7 -14 -21 -30 -30 -18 -10 -38 -35 -49 -60 l-18 -42 -7 28 c-5 21 -3 31
10 41 9 6 14 17 10 23 -4 7 -1 12 9 12 9 0 28 9 42 20 30 23 33 24 33 8z
m-1719 -55 c13 -16 12 -17 -3 -4 -17 13 -22 21 -14 21 2 0 10 -8 17 -17z
m1113 -22 c24 -26 4 -35 -22 -10 -12 11 -22 22 -22 24 0 12 29 3 44 -14z m236
-42 c0 -11 -11 -11 -28 0 -9 5 -11 17 -6 35 l6 27 14 -27 c8 -14 14 -30 14
-35z m-967 15 c5 -26 3 -30 -16 -30 -14 1 -26 -9 -36 -29 -8 -17 -16 -24 -19
-17 -2 7 3 21 12 31 9 10 16 24 16 31 0 12 31 54 35 48 1 -2 5 -17 8 -34z
m547 11 c-19 -51 -41 -85 -50 -80 -15 9 -12 19 20 63 34 48 44 53 30 17z m68
-6 c-10 -5 -18 -17 -18 -26 0 -13 -3 -14 -12 -5 -9 9 -8 15 8 27 10 8 24 14
29 14 6 0 2 -4 -7 -10z m-408 -28 c0 -14 -5 -18 -20 -14 -12 3 -22 -1 -26 -11
-8 -20 -24 -21 -24 -2 0 21 28 46 51 46 12 0 19 -7 19 -19z m-398 -36 c-5 -27
-18 -40 -26 -27 -4 8 20 52 28 52 2 0 1 -11 -2 -25z m488 0 c-7 -9 -15 -13
-17 -11 -7 7 7 26 19 26 6 0 6 -6 -2 -15z m485 -5 c-3 -5 -12 -10 -18 -10 -7
0 -6 4 3 10 19 12 23 12 15 0z m-1160 -10 c3 -5 -3 -10 -14 -10 -12 0 -21 5
-21 10 0 6 6 10 14 10 8 0 18 -4 21 -10z m417 -27 c21 -20 38 -43 38 -50 0
-20 -34 -15 -48 7 -7 11 -22 20 -33 20 -15 0 -19 4 -15 16 3 9 6 22 6 30 0 22
11 17 52 -23z m1098 18 c0 -5 3 -16 6 -25 5 -13 -1 -16 -30 -16 l-36 0 16 25
c16 24 44 34 44 16z m145 -41 c15 -29 15 -30 -5 -30 -16 0 -20 7 -20 30 0 17
2 30 5 30 2 0 11 -13 20 -30z m-1551 5 c-4 -8 -8 -15 -10 -15 -2 0 -4 7 -4 15
0 8 4 15 10 15 5 0 7 -7 4 -15z m207 -32 c-7 -14 -3 -21 20 -35 16 -10 29 -24
29 -33 0 -12 -5 -12 -34 3 -19 9 -37 25 -40 35 -2 10 -14 21 -25 24 -31 8 -15
23 25 23 30 0 34 -2 25 -17z m1049 -18 c0 -8 -8 -15 -19 -15 -10 0 -24 7 -31
15 -11 13 -8 15 19 15 21 0 31 -5 31 -15z m-1283 -21 c-6 -6 -47 9 -47 17 0 5
11 3 25 -3 14 -6 24 -13 22 -14z m740 8 c-10 -10 -17 -29 -17 -43 -1 -20 -2
-21 -10 -7 -13 22 4 68 26 68 16 0 16 -1 1 -18z m194 -15 c-7 -7 -15 -6 -25 2
-8 7 -25 9 -43 5 -19 -5 -25 -3 -18 4 6 6 24 12 40 14 35 4 61 -10 46 -25z
m689 13 c8 -5 11 -10 5 -10 -5 0 -17 5 -25 10 -8 5 -10 10 -5 10 6 0 17 -5 25
-10z m-990 -25 c-7 -9 -15 -13 -17 -11 -7 7 7 26 19 26 6 0 6 -6 -2 -15z m437
-29 c-4 -9 -11 -16 -18 -16 -6 0 -8 7 -5 16 3 9 6 21 6 27 0 8 3 8 11 0 7 -7
9 -19 6 -27z m276 14 c-4 -16 -9 -18 -24 -9 -26 14 -24 29 5 29 19 0 23 -4 19
-20z m-787 -33 c38 -33 28 -69 -26 -91 -46 -18 -70 -12 -70 18 0 16 2 18 9 7
12 -18 36 -8 57 23 21 33 12 60 -17 51 -15 -5 -19 -4 -15 4 11 17 33 13 62
-12z m304 -6 c0 -4 -7 -16 -16 -27 -14 -18 -15 -18 -4 4 6 12 8 28 4 34 -4 7
-3 8 4 4 7 -4 12 -11 12 -15z m-805 -23 c-3 -13 -8 -32 -9 -43 -5 -37 -21 -20
-21 22 0 35 3 43 19 43 14 0 17 -5 11 -22z m1455 12 c0 -5 -4 -10 -10 -10 -20
0 -9 -40 15 -56 14 -9 23 -19 20 -22 -3 -3 -16 5 -30 18 -24 23 -25 23 -45 5
-19 -18 -20 -18 -20 2 0 11 11 32 25 47 25 27 45 34 45 16z m-260 -59 c-11
-21 -40 -29 -40 -11 0 6 6 10 14 10 8 0 18 10 22 23 4 12 9 17 11 10 2 -7 -1
-21 -7 -32z m-856 -24 c-7 -18 -24 -23 -24 -8 0 22 13 42 22 33 5 -5 6 -16 2
-25z m758 20 c10 9 18 11 18 6 0 -6 -7 -16 -15 -23 -20 -17 -19 -32 5 -60 24
-28 24 -30 5 -30 -14 0 -46 52 -60 100 -7 24 -6 24 11 8 17 -16 19 -16 36 -1z
m-1182 -28 c0 -19 -26 -8 -27 12 -2 17 1 18 13 9 8 -7 14 -16 14 -21z m849 -5
c12 -11 11 -15 -11 -23 -24 -9 -48 -53 -48 -87 0 -23 39 -56 59 -49 15 4 16 0
12 -32 -4 -27 -6 -31 -9 -16 -3 20 -6 21 -24 12 -18 -10 -20 -9 -15 5 4 10 -1
21 -13 28 -17 11 -20 24 -20 101 l0 87 28 -6 c15 -4 33 -12 41 -20z m-651 -22
c2 -7 -3 -12 -12 -12 -9 0 -16 7 -16 16 0 17 22 14 28 -4z m286 -38 c27 17 73
10 86 -14 9 -16 6 -18 -30 -13 -38 5 -40 4 -40 -20 0 -14 7 -30 17 -35 15 -9
14 -11 -4 -21 -18 -9 -22 -7 -28 17 -10 40 -44 72 -77 72 -33 0 -33 2 -12 35
l16 24 25 -30 c23 -27 27 -29 47 -15z m-340 20 c3 -9 6 -27 6 -41 0 -19 -4
-24 -16 -19 -9 3 -18 6 -21 6 -4 0 2 9 12 20 18 20 18 21 -1 35 -16 12 -17 14
-3 15 9 0 20 -7 23 -16z m492 -24 c3 0 14 5 25 10 15 9 19 7 18 -7 0 -10 -4
-27 -8 -37 -7 -17 -9 -17 -29 9 -12 15 -21 35 -21 44 1 13 2 13 6 -1 2 -10 7
-18 9 -18z m394 5 c6 4 7 -6 4 -23 -5 -22 -1 -34 16 -50 l22 -20 -23 -31 c-12
-17 -26 -31 -30 -31 -3 0 -18 18 -33 40 -19 29 -33 40 -51 40 -28 0 -29 3 -14
31 7 14 19 20 37 19 41 -3 44 -2 32 21 -11 19 -10 20 9 9 12 -6 26 -8 31 -5z
m109 -41 c-18 -22 -3 -44 31 -44 28 0 30 -2 16 -15 -8 -9 -13 -21 -10 -29 5
-13 -44 -41 -54 -31 -3 3 0 17 7 31 10 22 9 30 -5 45 -15 17 -15 23 -4 44 7
13 17 22 22 19 5 -3 4 -12 -3 -20z m131 2 c5 -14 22 -33 37 -42 15 -10 34 -24
41 -33 15 -18 16 -61 1 -61 -5 0 -7 5 -4 11 4 5 4 21 1 35 -7 26 -33 33 -42
11 -3 -8 -18 -14 -34 -14 -26 0 -27 2 -19 25 5 13 7 40 3 58 -7 39 2 45 16 10z
m-1020 -21 c0 -8 -4 -15 -9 -15 -13 0 -22 16 -14 24 11 11 23 6 23 -9z m490
-85 c9 -16 8 -18 -5 -14 -8 4 -15 12 -15 20 0 20 7 17 20 -6z m-117 -10 c-7
-26 23 -61 51 -59 44 4 56 -1 56 -22 0 -17 -4 -20 -20 -15 -11 3 -28 9 -39 12
-15 5 -19 -1 -25 -35 -3 -23 -12 -41 -19 -41 -8 0 -13 27 -15 90 -2 52 1 90 7
90 5 0 7 -9 4 -20z m-62 -77 c-5 -30 -11 -39 -29 -41 -13 -2 -30 2 -37 8 -21
17 -1 50 30 50 13 0 27 5 30 10 11 17 12 11 6 -27z m639 -13 c0 -10 6 -23 14
-29 11 -9 18 -8 32 6 13 13 18 15 22 5 2 -7 15 -17 28 -22 17 -7 24 -17 24
-35 0 -29 -3 -30 -35 -9 -20 13 -31 14 -56 5 -18 -6 -33 -10 -34 -9 -15 19
-25 55 -25 89 0 36 2 40 15 29 8 -7 15 -20 15 -30z m-1280 20 c0 -5 -2 -10 -4
-10 -3 0 -8 5 -11 10 -3 6 -1 10 4 10 6 0 11 -4 11 -10z m170 -12 c0 -13 -36
-45 -58 -52 -13 -4 -22 -1 -26 9 -4 10 1 15 15 15 12 0 23 8 26 18 4 17 43 26
43 10z m765 -92 c-9 -21 -19 -35 -22 -32 -3 3 2 24 13 47 22 51 31 37 9 -15z
m216 27 c7 -18 1 -24 -42 -41 -29 -13 -49 -27 -49 -36 0 -17 -5 -18 -34 -7
-12 5 -24 25 -31 53 l-11 45 32 -7 c17 -4 36 -10 42 -14 17 -10 62 5 62 21 0
21 22 11 31 -14z m-818 -4 c-4 -15 0 -27 12 -35 11 -8 14 -14 8 -14 -27 0 -53
46 -36 63 13 14 21 6 16 -14z m539 -32 c-3 -42 -1 -47 17 -47 18 0 21 -6 21
-42 0 -43 21 -78 47 -78 8 0 11 -4 8 -10 -10 -15 -21 -12 -53 15 -17 14 -35
25 -41 25 -15 0 -14 -43 1 -58 6 -6 9 -14 6 -18 -10 -9 -48 72 -48 101 0 16 6
25 16 25 11 0 14 8 12 28 -3 24 -7 27 -35 26 -18 -1 -33 3 -33 9 0 15 62 75
75 72 6 -1 9 -23 7 -48z m-840 25 c3 -12 -2 -24 -15 -31 -17 -11 -19 -11 -13
4 3 9 6 23 6 31 0 20 17 17 22 -4z m418 -53 c0 -9 -7 -19 -15 -23 -16 -6 -18
5 -8 42 4 18 8 20 14 10 5 -7 9 -20 9 -29z m-366 15 c10 -25 1 -27 -19 -4 -15
17 -16 20 -3 20 9 0 19 -7 22 -16z m519 9 c-7 -2 -19 -2 -25 0 -7 3 -2 5 12 5
14 0 19 -2 13 -5z m167 -125 c0 -25 -7 -45 -20 -58 -18 -18 -18 -22 -5 -60 8
-23 18 -46 22 -53 9 -14 5 -58 -6 -70 -4 -4 -6 5 -4 20 2 15 -7 56 -20 90 -25
60 -25 62 -6 79 27 25 24 52 -8 66 -40 17 -73 49 -73 70 0 10 5 18 10 18 6 0
10 -6 10 -13 0 -18 34 -49 43 -40 4 3 7 14 7 23 0 9 5 21 12 28 9 9 15 3 25
-26 7 -20 13 -54 13 -74z m696 80 c-9 -5 -16 -19 -16 -31 0 -20 4 -22 35 -19
27 3 35 1 35 -11 0 -22 -18 -31 -36 -16 -8 6 -33 12 -56 12 l-41 0 26 14 c15
7 27 22 27 31 0 22 20 43 33 35 5 -3 2 -10 -7 -15z m-267 -58 c5 0 20 9 34 20
32 25 66 28 46 4 -24 -29 -69 -46 -102 -38 -49 10 -57 20 -45 55 l10 30 25
-35 c13 -20 27 -36 32 -36z m-651 35 c-3 -3 -9 2 -12 12 -6 14 -5 15 5 6 7 -7
10 -15 7 -18z m-488 -18 c0 -13 -39 -41 -47 -34 -5 5 33 47 42 47 3 0 5 -6 5
-13z m1300 10 c0 -2 -10 -12 -22 -23 l-23 -19 19 23 c18 21 26 27 26 19z
m-1124 -34 c-3 -8 -6 -20 -7 -26 -1 -14 -17 22 -18 40 -1 7 6 10 15 6 8 -3 13
-12 10 -20z m1470 -30 c-3 -7 0 -24 6 -37 6 -14 7 -33 3 -43 -11 -28 -57 69
-49 102 6 25 7 25 26 9 10 -10 16 -24 14 -31z m-1129 -42 c-13 -5 -36 31 -37
59 0 22 3 21 23 -15 13 -22 19 -42 14 -44z m115 9 c3 -18 -1 -35 -9 -41 -21
-18 -16 -60 7 -66 20 -5 27 -27 12 -37 -4 -2 -23 7 -41 21 -25 19 -29 28 -19
34 8 5 13 28 14 57 2 75 27 97 36 32z m633 13 c-16 -2 -36 -12 -42 -21 -12
-14 -13 -13 -13 6 0 19 5 22 43 21 33 -2 36 -3 12 -6z m-1141 -13 c26 -9 37
-32 14 -27 -7 1 -15 -13 -18 -33 l-5 -35 -13 41 c-20 67 -19 70 22 54z m1432
-14 c3 -13 4 -43 2 -67 -3 -44 -3 -44 30 -43 28 2 32 -1 32 -25 0 -14 3 -36 6
-48 5 -17 2 -23 -10 -23 -11 0 -16 9 -16 29 0 16 -7 34 -15 41 -13 11 -21 8
-46 -16 l-29 -28 -36 36 c-42 41 -43 71 -2 39 35 -28 61 -18 56 20 -3 16 0 29
5 29 5 0 6 18 2 40 -7 44 10 58 21 16z m-153 -50 c-10 -14 -26 -26 -35 -26
-26 0 -22 15 7 28 14 7 29 20 32 29 4 10 8 12 11 5 2 -6 -5 -23 -15 -36z m-98
-7 c9 -42 3 -44 -34 -14 -39 33 -39 45 -2 45 25 0 31 -5 36 -31z m-831 2 c3
-4 -3 -16 -14 -26 -19 -18 -20 -17 -20 8 0 26 22 38 34 18z m1206 -66 c0 -14
-2 -25 -4 -25 -2 0 -6 11 -8 25 -3 14 -1 25 3 25 5 0 9 -11 9 -25z m-1157 8
c6 -6 -87 -113 -106 -121 -19 -9 17 55 51 89 39 40 45 43 55 32z m861 -28 c14
10 28 16 31 14 9 -10 -13 -29 -48 -44 l-37 -15 0 32 c0 29 1 30 13 14 13 -18
15 -18 41 -1z m-1219 -30 c-22 -18 -32 -21 -42 -13 -18 15 0 36 35 40 39 5 41
-1 7 -27z m625 -45 c0 -8 -4 -21 -9 -29 -7 -11 -12 -8 -26 13 -23 35 -14 62
15 44 11 -7 20 -20 20 -28z m130 14 c0 -2 -9 -8 -19 -13 -16 -9 -18 -8 -14 8
3 12 11 17 19 14 8 -3 14 -7 14 -9z m-703 -51 c-8 -7 -37 9 -31 19 3 5 12 4
20 -3 8 -6 13 -14 11 -16z m663 2 c0 -12 -59 -46 -79 -45 -9 1 62 60 71 60 4
0 8 -7 8 -15z m665 3 c14 -6 25 -17 25 -24 0 -22 29 -24 49 -3 11 12 25 19 33
16 10 -4 9 -6 -2 -6 -8 -1 -20 -11 -25 -23 -15 -33 -72 -27 -102 9 -12 15 -20
30 -17 35 7 10 8 10 39 -4z m-589 -36 c-22 -5 -30 3 -21 18 5 8 11 7 22 -2 15
-12 14 -13 -1 -16z"/>
<path d="M4200 4446 c-15 -40 -13 -46 14 -46 24 0 24 2 14 33 -15 43 -16 44
-28 13z"/>
<path d="M5151 4447 c-15 -39 -14 -47 9 -47 21 0 25 20 10 55 -7 19 -9 18 -19
-8z"/>
<path d="M6101 4440 c-14 -42 -15 -40 15 -40 22 0 24 3 18 23 -14 47 -21 51
-33 17z"/>
<path d="M4217 883 c-20 -10 -27 -21 -25 -36 5 -33 26 -31 48 5 31 52 27 57
-23 31z"/>
<path d="M4330 608 c0 -7 5 -20 10 -28 8 -12 10 -9 10 13 0 15 -4 27 -10 27
-5 0 -10 -6 -10 -12z"/>
<path d="M3720 296 c0 -28 24 -41 40 -21 16 20 5 45 -20 45 -14 0 -20 -7 -20
-24z"/>
<path d="M3087 134 c-15 -15 -6 -24 24 -24 20 0 29 4 27 13 -5 14 -40 21 -51
11z"/>
</g>
</svg>
